<?xml version="1.0" encoding="UTF-8"?><svg id="Layer_1" xmlns="http://www.w3.org/2000/svg" viewBox="0 0 988.94 1108.27"><defs><style>.cls-1{fill:#ed8d00;}.cls-2{fill:#fff;}.cls-3{fill:#ffd53e;}.cls-4{fill:#332b26;}.cls-5{fill:#165939;}</style></defs><polygon class="cls-5" points="897.88 897.87 827.27 935.75 901.32 1011.41 607.32 971.23 720.22 855.84 897.88 897.87"/><path class="cls-4" d="M905.75,1013.63l-301.8-41.26,115.76-118.3,.88,.2,181.77,43.01-72.48,38.86,75.86,77.49Zm-295.04-43.56l286.2,39.12-72.28-73.83,68.78-36.9-172.67-40.85-110.02,112.46Z"/><polygon class="cls-4" points="608.92 970.65 764.37 943.72 644.01 934.77 608.92 970.65"/><polygon class="cls-5" points="87.84 896.44 158.43 934.36 84.34 1010.04 378.38 969.8 265.51 854.51 87.84 896.44"/><path class="cls-4" d="M79.93,1012.24l75.86-77.49-72.44-38.92,182.66-43.09,.63,.63,115.12,117.57-3.17,.43-298.66,40.87Zm12.38-115.21l68.74,36.94-1.47,1.51-70.83,72.34,286.24-39.18-110-112.36-172.67,40.75Z"/><polygon class="cls-4" points="376.78 969.26 221.37 942.39 341.75 933.43 376.78 969.26"/><path class="cls-5" d="M493.37,1108.27L0,603.99,373.32,224.01l245.05,4.48,1.38,1.4,369.19,374.11-3.34,3.36-492.23,500.92ZM13.47,603.99l479.92,490.54,482.03-490.54L614.28,238.04l-236.99-4.32L13.47,603.99Z"/><path class="cls-5" d="M492.89,645.67h5.92v-103.77s14.61,1.38,14.61,20.42c0,0,8.9-7.1,3.05-25.16,0,0,10.62-.61,14.63,17.71,0,0,5.52-12.88,0-29.8,0,0,6.68-1.08,12.35,10.54,0,0,.22-12.19-7.18-19.81,0,0,8.55-.98,15.18,5.82,0,0-3.79-13.17-16.53-21.62,0,0,6.47-5.94,16.36,0,0,0-3.58-11.19-25.14-12.23,0,0,4.56-5.6,12.21-4.42,0,0-11.99-7.59-27.4-5.48,0,0,3.07-9.14,13.9-10.89,0,0-14.23-4.8-29.49,10.67,0,0-2.16-8.77-3.6-10.22h-.45c-1.4,1.45-3.6,10.22-3.6,10.22-15.18-15.47-29.49-10.67-29.49-10.67,10.81,1.75,13.92,10.89,13.92,10.89-15.45-2.1-27.42,5.48-27.42,5.48,7.59-1.18,12.19,4.42,12.19,4.42-21.51,1.04-25.12,12.23-25.12,12.23,9.87-5.94,16.34,0,16.34,0-12.72,8.45-16.51,21.62-16.51,21.62,6.64-6.8,15.2-5.82,15.2-5.82-7.41,7.63-7.25,19.81-7.25,19.81,5.72-11.62,12.38-10.54,12.38-10.54-5.52,16.93,0,29.8,0,29.8,3.95-18.32,14.63-17.71,14.63-17.71-5.92,18.07,3.07,25.16,3.07,25.16,0-19.05,14.65-20.42,14.65-20.42v103.77h8.65Z"/><path class="cls-5" d="M364.83,647.49h0s45.19-41.32,128.29,16.18l33.83,23.84c7.55-17.71,16.73-10.93,22.08-5.43,0,0-8.87,10.3-8.87,14.21,0,0,7.29,11.93,18.67,4.78,6.64-2.18,12.01,14.25-2.58,18.1,0,0-11.3-2.91-22.08-9.95,0,0-15.18,17.24-23.69,4.78-4.29-8.71,9.14-14.19,9.14-14.19,0,0-53.06-60.07-154.8-52.33"/><path class="cls-5" d="M623.06,647.49h0s-45.17-41.32-128.29,16.18l-33.81,23.84c-7.59-17.71-16.71-10.93-22.11-5.43,0,0,8.85,10.3,8.85,14.21,0,0-7.25,11.93-18.62,4.78-6.62-2.18-12.01,14.25,2.54,18.1,0,0,11.36-2.91,22.11-9.95,0,0,15.14,17.24,23.69,4.78,4.29-8.71-9.16-14.19-9.16-14.19,0,0,53.12-60.07,154.8-52.33"/><path class="cls-5" d="M165.51,832.4s350.89-74.5,652.54,0l-52.78,112.19s-327.95-33.1-548.17,0l-51.58-112.19Z"/><path class="cls-4" d="M216.14,946.34l-.51-1.08-52.43-114.01,1.97-.41c1.57-.33,158.34-33.16,349.63-33.16,112.38,0,214.54,11.17,303.63,33.16l1.89,.47-54.08,114.98-1.14-.12c-1.45-.14-147.55-14.7-308.02-14.7-94.22,0-174.89,4.95-239.77,14.7l-1.18,.18Zm240.94-18.09c153.15,0,293.23,13.25,307.21,14.63l51.48-109.4c-88.4-21.64-189.66-32.59-300.98-32.59-179.36,0-328.3,28.88-347,32.67l50.25,109.26c64.81-9.65,145.23-14.57,239.04-14.57"/><path class="cls-5" d="M417.28,415.84c1.47-1.22,3.46-2.36,5.39-1.51,1.38,.45,2.46-.33,3.46-1.36,.69,.39,1.87,.88,2.56,.14,.61-1.14,1.3-2.83,.37-4.01-.31,.29-.55,.83-.71,1.18,0,.39,.28,.79,.16,1.16l-1.47-.06c-.73-.28,.14-.9-.12-1.43h-.1c-.77,.67-.96,1.79-1.91,2.3-.53,.22-1.24,.18-1.77-.06-3.62-1.12-6.19,2.44-8.37,5.03-1.4,1.81-3.28,2.85-5.05,4.03,.73-.08,1.3-.35,1.87-.59,2.28-.83,3.79-3.3,5.7-4.82"/><path class="cls-5" d="M604.58,355.48c.28-.45,.57-.96,.57-1.61h-.12l-29.7,15.16-18.83,9.87-4.8,2.71c-.33,.73-.53,1.47-.65,2.26,2.75-1.79,5.66-3.28,8.55-4.89l44.98-23.49Z"/><path class="cls-5" d="M473.36,387.74c.28,.06,.43-.06,.51-.26,.14,0,.43-.12,.47,.08,.85,1.28,1.3,2.65,1.77,4.13,.16,.47,.16,.96,.29,1.55,.14,0,.26-.1,.31-.24,1.1-1.75,1.02-4.07,1.69-6.03,.18-.55,.37-1.12,.98-1.44,.71-.12,.87,.75,1.47,.98,.35-.49,.59-1.1,.49-1.71-.26-.53-.61-1.12-1.1-1.38-.22-.18-.55-.18-.85,0-1.99,1.51-1.83,4.19-2.44,6.41l-.16,.45c-.26-.88-.35-1.71-.59-2.56-.59-1.45-1.51-3.4-3.28-3.46-.53,.55-.98,1.32-1.18,2.02,.35,.67,.96,1.32,1.59,1.43"/><path class="cls-5" d="M438.54,362.69c.29-.37,.65-.88,.65-1.45h-.18l-39.37,15.12c-.33,.63-.55,1.38-.77,2.12l12.13-4.95,26.16-10.18,1.38-.65Z"/><path class="cls-5" d="M459.92,405.67l3.3-2.26,9.83-6.72c.16-.43,.29-.85,.22-1.28h-.06l-13.05,8.65c-.06,.51-.22,1.1-.24,1.61"/><path class="cls-5" d="M354.71,415.98l3.3-2.26,9.77-6.72c.2-.41,.31-.85,.2-1.32h-.04l-12.99,8.65c-.1,.51-.22,1.1-.24,1.65"/><path class="cls-5" d="M534.47,426.4l3.58-1.42,10.63-4.15c.26-.33,.45-.79,.45-1.26h-.04l-14.04,5.29c-.18,.57-.39,1.02-.59,1.53"/><path class="cls-5" d="M388.81,365.08c.12-.37,.61-.51,.94-.63,.43-.08,.73,.16,.79,.51,.14,.45,.1,1.12-.06,1.49-.59-.24-1.47-.61-1.67-1.38m1.67,3.89c.45,.28,.86,.63,1.32,1.08,.33-.61,.79-1.24,.94-1.95-.37-.55-.9-.85-1.47-1.12,.45-1.22,.81-2.69,.35-3.99-.39-.79-1.44-.57-2.01-.24-1.08,.83-2.12,1.85-2.18,3.32,0,1.18,1.28,2.02,2.18,2.52-3.22,3.22-7.08,4.88-10.65,7.31l-.37,.31c4.46-1.2,8.79-3.32,11.89-7.25"/><path class="cls-5" d="M365,357.21c-.75,.26-1.22,.96-1.22,1.75-.2,.39,.35,.49,.47,.67,.18,1.44-.16,3.07,.75,4.25,.37,.43,.92,.51,1.47,.43,.94-.26,1.57-1.38,1.73-2.34,.28,.59,.51,1.16,1.04,1.63,.41,.26,.85,.35,1.28,.16,.53-.31,.85-1,1.02-1.43,.81-1.71-.18-3.3-.61-4.64-.2-.59-.2-1.22-.41-1.67-1.49,1.67-.02,3.7,.65,5.23-.12,.14-.18,.45-.43,.57-.47,.16-.96,.06-1.4-.28-.63-.59-.45-1.51-.59-2.4-.14-.96-.26-2.04-.81-2.79-.31,.39-.39,.75-.55,1.18,.02,1.32,.96,2.79,.16,4.01-.35,.53-.86,.9-1.49,.9-1.51-.9-.75-2.89-.75-4.32-.04-.37,0-.81-.31-.9"/><path class="cls-5" d="M486.79,353.72c-.67,.28-1.2,.94-1.2,1.77-.1,.33,.39,.45,.53,.67,.12,1.43-.2,3.07,.67,4.23,.41,.43,.96,.51,1.49,.35,.98-.22,1.55-1.3,1.79-2.3,.2,.57,.51,1.18,1,1.71,.39,.18,.87,.29,1.32,.04,.55-.24,.83-.87,1.02-1.42,.73-1.69-.2-3.28-.67-4.6-.24-.49-.24-1.2-.35-1.63-1.47,1.63-.08,3.68,.61,5.17-.06,.22-.18,.49-.49,.63-.41,.1-.94,.04-1.28-.29-.65-.59-.45-1.51-.59-2.34-.18-1.04-.22-2.02-.87-2.85-.33,.29-.37,.69-.55,1.14,.04,1.4,1.02,2.77,.18,4.05-.39,.57-.83,.79-1.47,.79-1.57-.79-.83-2.73-.83-4.25-.04-.28,0-.75-.31-.87"/><path class="cls-5" d="M630.33,360.3c-.71,.22-1.24,.94-1.24,1.77-.1,.41,.43,.41,.53,.63,.16,1.42-.2,3.07,.71,4.23,.43,.51,.9,.55,1.51,.43,.96-.24,1.49-1.28,1.73-2.34,.22,.59,.53,1.14,1.04,1.59,.35,.24,.85,.39,1.28,.24,.61-.31,.85-1,1.02-1.51,.77-1.67-.18-3.26-.67-4.6-.18-.55-.18-1.18-.35-1.67-1.49,1.67-.06,3.7,.67,5.25-.06,.22-.24,.43-.49,.59-.41,.12-.98,.08-1.36-.28-.61-.59-.41-1.49-.53-2.4-.22-.98-.28-2.04-.87-2.77-.31,.26-.35,.69-.63,1.16,.12,1.28,1.06,2.79,.28,4.01-.45,.55-.85,.87-1.55,.87-1.55-.87-.75-2.81-.75-4.3-.08-.33,0-.75-.33-.88"/><path class="cls-5" d="M409.88,363.84l2.69,.2c.29,.14,.81,.26,.77,.63-2.71,1.93-5.84,3.05-8.47,5.09,1.97-.39,3.85-.92,5.76-1.53,2.93-.88,5.07-4.19,6.49-6.74,.2-.37,.16-.86-.24-1.1-2.28-1.04-4.97-.83-7.63-.85-1,.02-2.1,.16-2.85,.96-.67,1.1-1.32,2.08-1.81,3.24l.08,.1h5.21Z"/><path class="cls-5" d="M347.54,361.68l1.73,.18c.14,.1,.51,.18,.39,.35-1.61,1.32-3.6,1.91-5.25,3.28,1.28-.33,2.44-.71,3.64-1.04,1.83-.51,3.15-2.59,4.07-4.21,.1-.28,.04-.55-.2-.71-1.4-.71-3.09-.47-4.78-.53-.59,.06-1.24,.12-1.77,.61-.39,.69-.81,1.32-1.16,2.02l.12,.04h3.2Z"/><path class="cls-5" d="M560.89,361.11l2.69,.26c.26,.16,.73,.24,.73,.59-2.75,1.99-5.86,3.07-8.47,5.15,2-.39,3.85-.98,5.72-1.57,2.99-.86,5.13-4.17,6.55-6.72,.18-.43,.1-.85-.28-1.12-2.26-1.04-4.95-.83-7.59-.83-1.06,0-2.08,.14-2.89,.98-.61,.98-1.28,2.04-1.81,3.2l.06,.06h5.29Z"/><path class="cls-5" d="M632.25,378.41c.33,2.99,1.26,5.78,1.49,8.83,.08,1.2,0,2.61,.2,3.81,1.06-4.36,.02-8.87-1.1-12.95,1.12-1.14,2.83-1.26,4.23-1.75l.69-1.18c.28-.57,.04-1.08-.26-1.42-.98-.92-1.97-2.02-3.32-1.81-1.22,.61-1.34,2.14-1.34,3.36,.47-.26,.67-.94,1.12-1.18,.51,0,1.02,.24,1.22,.55l-1.59,.71c-1.06,.61-1.34,1.89-1.34,3.03"/><path class="cls-5" d="M383.79,413.6c.28,.45,.81,.73,1.3,.79-.39,.59-.71,1.04-.98,1.55-.45,1.02-.83,2.08-.53,3.15,.35,.49,.81,.75,1.3,.92,2.12,.22,4.17-.43,5.56-1.99-1.79,.43-3.75,1.06-5.8,.43-.26,0-.53-.37-.53-.73,.33-1.2,1.24-2.2,2.18-3.18,.65-.79,1.93-1.06,2.06-2.2,.06-.35,.18-.79,0-.96-.81,.49-1.42,1.63-2.5,1.55-.47-.12-.92-.35-1.1-.83l.18-.55c.29-.28,.45-.57,.88-.57,.29,0,.47,.29,.53,.57,.35-.49,.98-.92,.73-1.53-.18-.92-1.14-.39-1.49-.08-.98,1.04-2.22,2.16-1.79,3.66"/><path class="cls-5" d="M427.57,380.27c.18,0,.35-.02,.51,.08,.88,1.71,1.55,3.38,1.95,5.33l.16,.35c1.36-1.71,1.14-4.19,1.87-6.25,.22-.45,.39-1.14,.96-1.45,.75-.16,.98,.79,1.47,1,.41-.43,.69-1.16,.53-1.79-.22-.59-.75-1.45-1.59-1.45-.35,.06-.57,.28-.75,.51-1.53,1.89-1.53,4.31-2.24,6.49-.2-.79-.28-1.67-.61-2.5-.45-1.47-1.43-3.52-3.26-3.42-.94,1.55-1.87,3.24-3.48,4.46-3.03,2.18-6.05,4.13-9.22,5.94l-.63,.59h.2c4.62-1.45,9.79-3.6,12.11-8.55,.45,.28,.88,.87,1.49,.98,.24,.04,.43,0,.53-.31"/><path class="cls-5" d="M599.57,378.6c.22,0,.41-.1,.47,.04,.96,1.63,1.61,3.36,1.93,5.25,0,.16,0,.43,.26,.41,1.38-1.79,1.16-4.27,1.85-6.27,.2-.53,.43-1.1,.96-1.45,.71-.18,.98,.77,1.47,.96,.41-.45,.71-1.14,.55-1.63-.26-.73-.77-1.57-1.65-1.57-.26,.02-.55,.22-.75,.45-1.51,1.93-1.51,4.34-2.18,6.53-.18-.85-.37-1.73-.57-2.5-.55-1.47-1.51-3.52-3.26-3.44-1.06,1.57-1.93,3.32-3.52,4.5-3.03,2.16-6.05,4.11-9.24,5.94l-.65,.59h.2c4.68-1.45,9.83-3.64,12.15-8.61,.41,.33,.9,.96,1.49,1.02,.24,.08,.43,0,.49-.22"/><path class="cls-5" d="M611.19,365.98l.53-1.08c.85,.49,1.85,.87,2.34,1.95-.22,.43-.83,.67-1.26,1.06-.45,.1-1,.31-1.51,.2-.63-.45-.28-1.49-.1-2.12m-.43,3.99c.79,.41,1.91,.24,2.59-.28,1.36-.85,1.34-2.42,1.45-3.85-.12-1.3-1.24-2.32-2.24-3.15l.88-2.52c-.1-.28-.55-.12-.65,0-1.28,2.04-2.04,4.36-2.56,6.78-.18,.94-.41,2.42,.51,3.01"/><path class="cls-5" d="M509.45,360.02c-.02,1.36-.24,2.83,.81,3.83,.24,.14,.77,.14,1.04,.06,1.2-.83,1.43-2.34,1.59-3.74-.47,.67-.79,1.89-1.77,1.69-.63-.18-.77-.94-.81-1.49,0-2.34,.92-4.36,1.4-6.37-1.14,1.77-1.93,3.74-2.26,6.02"/><path class="cls-5" d="M483.73,398.38c-.08,1.24-.31,2.83,.75,3.77,.26,.22,.81,.22,1.08,.06,1.2-.83,1.43-2.28,1.55-3.64-.43,.59-.75,1.83-1.79,1.65-.59-.22-.69-.88-.81-1.53,0-2.28,.92-4.36,1.42-6.37-1.12,1.79-1.89,3.81-2.2,6.05"/><path class="cls-5" d="M653.75,420.38c-.06,1.32-.22,2.85,.77,3.75,.28,.2,.79,.2,1.14,.06,1.16-.79,1.42-2.34,1.53-3.62-.49,.61-.81,1.79-1.83,1.67-.57-.26-.75-.98-.79-1.59,0-2.26,.9-4.32,1.43-6.35-1.18,1.83-1.97,3.77-2.26,6.07"/><path class="cls-5" d="M437.97,416.53c-.04,1.36-.3,2.83,.77,3.79,.28,.18,.75,.18,1.1,.06,1.14-.85,1.38-2.36,1.53-3.64-.41,.57-.77,1.81-1.81,1.65-.55-.24-.71-.96-.81-1.51,0-2.34,.94-4.4,1.42-6.41-1.12,1.85-1.89,3.81-2.2,6.05"/><path class="cls-5" d="M534.8,379.08c-.04,1.26-.24,2.81,.77,3.74,.28,.2,.81,.2,1.14,.04,1.14-.79,1.38-2.32,1.51-3.62-.45,.63-.77,1.83-1.77,1.65-.61-.18-.71-.88-.81-1.55,0-2.28,.88-4.3,1.43-6.35-1.2,1.81-1.93,3.83-2.28,6.09"/><path class="cls-5" d="M459.02,418.71c-.02,1.71-.31,3.58,.98,4.72,.35,.24,.96,.24,1.42,.14,1.45-1.1,1.79-2.95,1.93-4.58-.53,.75-1,2.34-2.26,2.06-.73-.22-.92-1.18-.96-1.91,0-2.93,1.1-5.43,1.79-7.96-1.45,2.26-2.42,4.76-2.89,7.53"/><path class="cls-5" d="M397.74,421.45c-.08,1.67-.31,3.54,.94,4.7,.31,.26,.96,.26,1.4,.1,1.43-.96,1.73-2.89,1.93-4.56-.55,.79-.96,2.34-2.26,2.1-.75-.22-.92-1.14-.96-1.95,0-2.81,1.1-5.39,1.81-7.94-1.49,2.28-2.46,4.78-2.85,7.55"/><path class="cls-5" d="M328.05,418.63c-.06,1.63-.3,3.5,1,4.72,.28,.22,.92,.22,1.36,.06,1.45-1.06,1.79-2.91,1.93-4.58-.55,.75-.96,2.36-2.24,2.14-.77-.31-.86-1.18-.96-1.95,0-2.89,1.12-5.43,1.77-8-1.47,2.34-2.4,4.76-2.85,7.61"/><path class="cls-5" d="M352.26,374.48c-.1,1.61-.31,3.5,.92,4.66,.37,.26,1.02,.26,1.43,.1,1.47-.98,1.77-2.89,1.95-4.56-.61,.73-.98,2.3-2.28,2.06-.73-.22-.87-1.14-.96-1.91,0-2.89,1.08-5.43,1.77-7.96-1.45,2.32-2.44,4.8-2.83,7.61"/><path class="cls-5" d="M598.91,421.37c-.08,1.26-.26,2.58,.73,3.5,.24,.2,.71,.2,1,.06,1.06-.75,1.34-2.12,1.45-3.38-.43,.49-.75,1.75-1.69,1.53-.53-.2-.67-.85-.75-1.43,0-2.14,.86-3.97,1.34-5.94-1.04,1.73-1.79,3.56-2.08,5.66"/><path class="cls-5" d="M377.07,365.01c-.02,1.2-.22,2.63,.77,3.5,.22,.24,.73,.24,1.04,.06,1.04-.67,1.28-2.12,1.42-3.4-.43,.59-.77,1.75-1.69,1.55-.55-.18-.67-.88-.71-1.4,0-2.14,.81-4.09,1.32-5.98-1.08,1.69-1.83,3.52-2.14,5.66"/><path class="cls-5" d="M540.14,360.62c.22-.59,.75-1.08,1.26-1.4,.47-.1,.75,.39,.79,.73,.12,.49,.2,1.1,.1,1.57-.83-.16-1.73-.16-2.14-.9m3.09-1c.98,.33,1.95,1.32,2.1,2.42-.77,0-1.53-.24-2.32-.35,.12-.63,.22-1.36,.22-2.06m-.75,3.81l2.61,.31c.65-.39,.83-1.14,1.1-1.79,.57-1.43-.59-2.42-1.36-3.44-1.16-.98-2.22-1.99-3.81-2.06-.47,.08-.81,.41-1.08,.81-.2,.49-.14,1.26,.04,1.69-.51,1-.9,2.3-.31,3.38,.47,.61,1.18,.81,1.79,1.02-3.09,2.93-6.74,4.56-10.16,6.8l-.67,.53h.28c4.27-1.32,8.53-3.24,11.58-7.25"/><path class="cls-5" d="M334.28,363.1c.22-.61,.81-1.14,1.32-1.42,.45-.04,.71,.37,.77,.77,.12,.43,.16,1.1,.06,1.53-.79-.14-1.75-.08-2.14-.88m3.11-1.04c.98,.39,1.93,1.38,2.14,2.4-.77,0-1.57-.16-2.32-.33,.14-.57,.18-1.42,.18-2.06m-.79,3.83l2.69,.28c.63-.39,.85-1.1,1.08-1.79,.57-1.34-.61-2.34-1.4-3.44-1.14-.94-2.18-1.93-3.77-2.1-.43,.18-.85,.51-1.1,.88-.18,.55-.14,1.22,.1,1.71-.53,1.02-.92,2.32-.37,3.3,.45,.67,1.18,.83,1.81,1.04-3.09,3.01-6.76,4.58-10.14,6.78l-.69,.59h.22c4.3-1.32,8.59-3.32,11.58-7.25"/><path class="cls-5" d="M496.38,424.44c1-.55,2.02-1.38,2.77-2.3,.88-1.32,2.06-3.05,1.2-4.82-.31-.35-.85-.35-1.38-.35-1.06,.22-1.45,1.43-1.59,2.4l.08,.1c.45-.31,.96-.63,1.51-.43,.53,.18,.61,.71,.49,1.18-.63,1.59-2.01,2.85-3.09,4.23"/><path class="cls-5" d="M501.23,399.25c2.52-.33,5.35-.31,7.49,.88l-3.91,1.99c-1.06-1.14-2.34-2.01-3.58-2.87m17.42-35.62l.12-.08,.63,.75c.43,.37,.77,.96,1.3,.88l.08-.39c-.88-3.26-2.12-6.41-3.34-9.49-.08-.39-.24-.79-.55-.85-.63,1.34-1.16,2.71-1.47,4.17,.53,1.38,.81,2.91,.65,4.58l1.38,20.25,1,16.69c.1,1.45,.12,3.03-.31,4.38-.98,1.02-2.28,1.69-3.62,1.99-2.52,.08-5.05-.12-6.88-1.73,1.81-1.04,3.62-1.91,5.52-2.75l1.71-2.93c.49-.51-.12-1.14-.55-1.45-1.47-1.04-3.07-1.55-4.76-2.18-4.74-1.51-10.32-.67-14.78,.87-1.77,.69-1.69,2.71-2.52,4.09-.04,.26-.31,.57-.04,.96,.75-.14,1.38-.71,2.24-.63,2.69-.43,4.64,1.47,6.47,3.34-4.97,2.24-9.95,4.05-14.72,6.7-3.75,1.83-6.64,5.66-9.28,8.96-2.04,1.93-4.46,3.66-7.25,2.81-1.22-.57-1.87-1.95-2.01-3.24-.18-3.83,1.57-7.06,2.59-10.52,.14-.59,.51-1.28,.33-1.97l-.49,.67c-1.77,3.74-3.58,7.47-3.58,11.97,.12,2.83,1.67,5.8,4.4,6.76,2.02,.69,4.03-.28,5.5-1.63,3.05-3.2,5.92-7.08,9.51-9.4,5.64-3.3,11.93-5.29,17.73-8.43,2.22,1.87,4.4,4.21,7.45,4.32,2.44,.37,4.93,.14,6.55-2.14,2.67-3.64,3.2-8.22,3.11-13.03l-2.12-32.3Z"/><path class="cls-5" d="M453.55,363.9l.12-.28c.26,.28,.43,.49,.75,.79,.33,.37,.73,.98,1.24,.85,.2-.53-.06-.96-.14-1.42l-3.13-8.55c-.22-.28-.14-.71-.53-.71-.71,1.32-1.3,2.71-1.49,4.23,.55,1.34,.75,2.87,.75,4.5l2.87,44.74,.12,4.56c.1,1.85-.26,3.6-.18,5.46h.14c1.99-3.62,2.48-7.94,2.32-12.4l-2.83-41.77Z"/><path class="cls-5" d="M665.64,396.08l-2.24-30.1-.14-2.24c.26-.12,.45,.37,.67,.59,.45,.39,.81,1.06,1.45,1,.14-.61-.14-1.22-.28-1.71l-2.87-7.92c-.28-.31-.28-.94-.73-1.06-.47,.75-.73,1.61-1,2.36-.22,.69-.57,1.38-.41,2.06,.61,1.32,.61,2.89,.61,4.48l2.63,36.56c.14,2.44,.14,5.13-.24,7.57,0,.45-.1,1,.16,1.34l.08-.02c2-3.83,2.58-8.34,2.3-12.92"/><path class="cls-5" d="M658.05,404.1c-1.53,.2-3.09-.37-3.93-1.73,1.4-.33,3.46-.43,4.31,1.04,.1,.28-.08,.69-.37,.69m-12.42,8.83c.06,.1,.06,.51-.2,.51-2.3,.28-4.09-1.43-5.31-3.18-.12-.24,.06-.31,.06-.31,2.2,.2,4.31,.96,5.45,2.99m8.53-15.06c-.63,.2-1.36,.49-2.01,.63-1.22-4.56-1.53-9.51-1.99-14.39l-.81-13.98-.18-5.78,.18-.18c.22,.35,.47,.57,.67,.85,.47,.31,.75,.86,1.28,.83,.22-.51-.02-.94-.1-1.32-1.16-3.16-2.18-6.41-3.54-9.36l-.18-.06c-.69,1.28-1.28,2.73-1.51,4.21,.73,1.61,.73,3.44,.73,5.37,.28,11.89,1.02,23.75,3.13,34.93l-8.3,4.07c-.98,.73-2.48,1.28-2.59,2.63-.35-.29-.61-.12-.83,.06-1.69,2.89-3.75,6.72-7.35,7.33-1.4,.2-3.13,.2-4.03-1.1-1.32-2.14-1.49-4.8-1.67-7.45l-.41-24.45c-.22-8.43-1.1-16.53-3.2-24.06-.14-.26-.14-.67-.43-.67-.63,1.34-.83,2.93-1.06,4.4l1.49,10.3c.63,5.23,.81,22.45,.9,27.7,.08,3.66,.33,7.65-.28,11.07-.37,2.02-1.99,4.09-3.91,4.62-1.89,.61-4.5,.96-6.27-.16-.83-.63-1.04-1.73-1.04-2.81l6.09-.83,.67-.57c.67-1.06,1.14-2.18,1.47-3.38,.29-2.24-.43-4.38-2-6.02-4.78-4.48-12.05-4.23-18.38-3.54l-20.07,2.34c-5.98,.51-12.05,1.3-18.18,.53-1.87-.2-3.73-.37-5.15-1.69-.49-.43,.04-.9,.29-1.24,5.78-6.21,12.15-11.52,19.54-14.02,1.36-.49,2.44,.39,3.13,1.36l.31-.18c.73-1.53,1.93-3.24,1-4.97-.45-.51-1-.73-1.69-.77-3.32-.08-5.98,1.75-8.75,3.32-5.13,3.5-11.22,7.53-14.45,13.39-.96,2.04-2,4.29-1.43,6.76,.53,1.3,1.85,1.93,3.01,2.32,3.17,.79,6.8,.69,10.32,.65l27.84-2.75,9.28-.85c4.88,0,9.97,.08,12.74,4.7,.04,.22,.28,.53,0,.65l-5.76,.63-22.76,2.97-15.16,1.87c-4.46,.33-8.92,.9-13.52,.63-3.93-.16-8.06-.16-11.6-1.4-3.26-1.57-3.44-5.48-6.31-7.61-.98-.51-2.22,0-2.99,.55-4.3,3.11-5.48,7.92-7.53,12.01-.51,1.12-1.04,2.1-1.95,3.01-.67,.85-1.83,1.08-2.83,.83-1.36-.41-2.24-1.79-2.71-2.95-1.06-3.75-.96-8.22-.43-12.15,0-.29,.14-.79-.16-1.02-.47,.61-.53,1.24-.73,1.89-.87,3.75-1.06,8.49,.2,12.15,.83,2.34,2.01,5.86,5.09,5.94,1.22,0,2.2-.87,2.89-1.89,1.81-2.65,2.59-5.84,3.95-8.67,1.22-2.04,2.89-4.74,5.41-5.17,.69-.24,1.24,.12,1.71,.63,1.73,2.54,3.13,6.21,6.43,7.14,3.97,1.4,8.51,1.32,12.97,1.43,5.21,0,10.08-.69,15.16-1.24l33.87-4.62c-.26,2.44-.39,5.52,1.81,7.16,2.1,1.4,5.31,1.04,7.41-.24,2.97-1.67,4.15-4.84,4.36-7.92,.29,1.99,.43,3.93,1.45,5.62,1.26,2.18,3.72,2.89,6.09,2.54,3.3-.67,5.41-4.3,6.53-7.16,.28,.85,.61,1.73,1.04,2.5,1.53,2.36,3.87,4.74,6.82,4.54,1.87-.55,3.11-2.61,3.54-4.32,.45-3.18-1-5.94-3.54-7.78,1.79-.88,3.83-1.59,5.68-2.56,1.2,2.38,3.54,5.17,6.45,5.17,1.1,.06,2.14-.57,2.61-1.55,1.42-2.36,1.22-6.05-.26-8.2-1.16-2.04-3.75-1.51-5.52-1.2"/><path class="cls-5" d="M525.03,365.01l2.59,36.48c.1,2.58,.1,5.15-.24,7.61,0,.53-.12,.96,.1,1.36h.18c1.99-3.87,2.52-8.35,2.28-12.95l-2.28-30.08-.04-2.26c.18,0,.35,.41,.57,.59,.45,.39,.9,1.08,1.45,1.08,.1-.69-.12-1.26-.22-1.83l-2.93-7.84c-.26-.29-.26-.92-.73-1.08-.45,.79-.69,1.59-1.06,2.34-.08,.71-.47,1.4-.41,2.06,.63,1.32,.73,2.93,.73,4.52"/><path class="cls-5" d="M464.33,356.33l-.18,.06c-.57,1.18-1.1,2.42-1.61,3.58l3.74,2.58c.79-.75,1.08-1.73,1.51-2.67l3.32,2.32c.1,.12,.35,.24,.53,0,.59-1.14,1.42-2.22,1.57-3.5-1.26-1-2.46-1.93-3.79-2.59-.57,.87-.9,1.87-1.43,2.73-1.16-.92-2.36-1.83-3.66-2.5"/><path class="cls-5" d="M472.5,375.42c1.24-2.28,3.15-5.46,6.03-5.72,.53,0,1,.43,1.34,.77l2.56,4.23c1.63,2.38,4.23,2.85,6.96,2.77,3.56-.12,6.55-2.77,8.41-5.66l.31,1.43c.49,1.85,2.36,3.34,4.25,3.42,1.99,.41,3.68-.75,4.62-2.4,1.65-2.97,1.91-7.41,.2-10.32-.12-.31-.29-1.06-.81-.63l-.98,3.54c-.12,1.42,1.32,2.42,1.36,3.83-.43,.55-1.02,.98-1.59,1.12-1.71,.33-3.81,.59-5.01-.92-.86-1.12-.49-2.67-.22-4.03,0,0,0-.39-.28-.39-1.36,1.12-2.4,2.58-3.6,3.89-2.65,2.46-6.72,2.95-10.12,1.85-2.85-1.42-3.42-4.62-5.56-6.66-.83-.79-2.24-.35-3.09,.12-4.64,3.09-5.92,8.22-8.06,12.64l-1.1,1.91c-.77,1.1-1.89,1.83-3.15,1.53-1.18-.22-2.32-1.26-2.71-2.38-1.47-3.44-1.32-8.06-.85-11.91,0-.59,.29-1.32-.08-1.85-.12,0-.18,.18-.26,.26-1.34,4.11-1.59,9.44-.33,13.68,.77,2.2,1.59,4.87,4.15,5.92,1,.41,2.16,0,2.89-.73,2.52-2.69,3.32-6.11,4.72-9.3"/><path class="cls-5" d="M365.68,370.56c.24,0,.63,0,.73-.35-.1-.26-.33-.45-.55-.59l-5.45-2.71c-.26-.08-.69-.55-1-.2l-.04,3.5c-.08,.94,.69,1.3,1.26,1.75l2.34,2.73c2.52,2.77,5.52,4.38,8.51,5.78,2.26,1.3,4.72,2.14,6.41,4.25,.33,1.32-1.32,1.91-2.08,2.69-4.42,3.09-8.92,6.17-13.52,8.83-2.3,1.02-4.66,2.81-7.39,1.83-1.1-.59-1.81-1.75-1.91-2.99-.18-2.99,.73-5.86,1.38-8.57,.08-.43,.35-.75,.08-1.08l-.2,.06c-1.22,2.59-1.93,5.35-2.32,8.32-.16,3.09-.53,6.76,2.12,8.67,2.14,1.22,4.66,.16,6.59-.81,5.37-3.09,10.56-6.7,15.57-10.65,1.93-1.28,2.46-3.32,2.77-5.25,.28-2.91-.06-5.88-2.65-7.43-4.25-2.54-8.98-3.79-12.74-7.65l2.1-.12Z"/><path class="cls-5" d="M501.51,378.53l-1.59,3.22-.16,.43,3.72,2.56,.2-.1,1.24-2.18c.14-.51,.75-1.18,.14-1.67-1.14-.9-2.26-1.71-3.54-2.26"/><path class="cls-5" d="M325.73,382.33l3.22,2.34c.18,.08,.37,.28,.55,0,.61-1.14,1.44-2.16,1.63-3.52-1.26-.96-2.46-1.91-3.83-2.5-.61,.79-.88,1.81-1.42,2.75-1.14-1-2.42-1.89-3.62-2.56l-.16,.06c-.63,1.2-1.2,2.42-1.65,3.54l3.75,2.65c.73-.77,1.02-1.85,1.51-2.77"/><path class="cls-5" d="M335.99,390.05l-.45-1.69,6.94-6.31c.28-.24,.59-.59,.98-.59v.35l-.65,1.28c-2.22,2.34-4.44,4.78-6.82,6.96m-5.03,13.05c-1.2,.2-2.79,.55-3.99-.14-.28-.43,.1-.77,.33-1.12,1.85-2.71,4.56-4.84,6.94-7.21,.37,1.69,.92,3.32,1.02,5.13-.49,1.95-2.67,2.59-4.3,3.34m16.2-4.17c-.51,1.16-.83,2.44-.79,3.75,.57,1.16,1.3,2.22,1.81,3.42,.14,.43,.39,.88,.14,1.26-.81,1.51-2.46,1.83-3.99,1.59-2.65-.71-4.7-3.5-5.46-6l-2.3-10.5c2.91-2.87,5.92-5.84,7.76-9.2,.53-1.1,1.28-2.38,.85-3.7-.61-.81-1.71-.33-2.42,0-2.79,1.85-5.27,4.76-7.92,7.08l-.9-1.99c-.24-.47-.37-1.14-.87-1.47-.63,1.47-1.02,2.99-1.2,4.48l.47,1.32c-3.28,2.85-6.62,5.35-10.08,7.59-.69,.53-1.55,.96-2.06,1.79,.43-.1,.81-.18,1.16-.29,4.15-1.83,7.98-4.38,11.62-7.41l.59,1.65c-2.87,2.75-6.51,5.46-7.75,9.08-.57,1.77-1.08,4.07-.31,5.86,.31,.57,.88,.81,1.47,.88,2.69,.12,4.93-1.02,7.1-2.56,1.45-1.14,1.73-2.97,2.16-4.6,.63,4.27,1.51,8.34,4.84,11.42,1.53,1.2,3.68,1.79,5.56,1.04,1.91-1.1,2.81-3.16,3.13-5.23,.37-3.46,0-6.84-2.08-9.4-.16-.24-.41-.08-.51,.12"/><path class="cls-5" d="M485.98,380.27l-.1,.14c-.61,1.12-1.2,2.32-1.63,3.56l3.75,2.59c.71-.81,1-1.85,1.43-2.75l3.32,2.26s.39,.35,.49,.1c.69-1.12,1.43-2.16,1.61-3.48-1.22-1.06-2.42-1.99-3.79-2.58-.59,.83-.9,1.85-1.43,2.73-1.16-.94-2.36-1.87-3.66-2.58"/><path class="cls-5" d="M539.92,391.39l3.3,2.34c.12,.18,.35,.28,.45,0,.69-1.1,1.49-2.14,1.65-3.38-1.2-.98-2.42-1.99-3.81-2.65-.63,.85-.88,1.81-1.4,2.73-1.16-.96-2.4-1.83-3.68-2.5l-.14,.08c-.55,1.22-1.16,2.38-1.65,3.58l3.74,2.61c.71-.73,1.04-1.85,1.53-2.81"/><path class="cls-5" d="M390.78,397.87c-1.1-1.12-2.42-2.02-3.68-2.91,2.58-.31,5.41-.31,7.55,.96l-3.87,1.95Zm-18.85,4.99c-.49-.24-.63-.87-.43-1.38,.57-.71,1.69-.71,2.54-.51,.88,.39,1.73,1.2,2.32,2.12-1.32,.2-3.16,.37-4.42-.24m74.07-39.34l-3.01-8.14c-.22-.57-.28-1.08-.81-1.4-.59,1.3-1.2,2.73-1.47,4.25,.63,1.32,.71,2.69,.71,4.25l1.91,30.17v3.48c-.12,.73-.08,1.55-.61,2.12-1.24,.98-2.61,1.75-4.23,1.67-1.04,.08-1.83-.39-2.63-1.12-.83-.94-.88-2.5-.69-3.85-.08-.18-.08-.39-.33-.39-.35,0-.53,.39-.63,.65-1.2,2.1-2.79,4.72-5.15,5.35-1.24,.33-2.65,.18-3.44-.94-.69-.92-1.3-2.3-.59-3.38,.08-.31,.39-.83,0-1.02-1.71,1.36-2.95,3.28-4.7,4.58-2.08,1.57-5.37,2.24-7.75,.94-1.1-.51-1.69-1.65-1.61-2.87,0-.75,.43-1.43,.33-2.04-.22-.31-.43-.18-.73-.1-2.56,2.06-4.56,5.17-7.63,6.09-3.03,.81-6.94,.81-9.4-1.38,1.81-.9,3.62-1.87,5.54-2.58l1.63-3.09,.26-.67c-.28-.43-.81-.77-1.24-.98-1.51-.96-3.2-1.55-4.95-2.12-4.56-1.16-9.81-.35-14.06,1.08-1.77,.57-1.71,2.69-2.52,4.05-.12,.29-.33,.61-.12,.98,.71-.08,1.42-.69,2.28-.69,2.71-.35,4.66,1.51,6.43,3.48-2.16,.86-4.4,1.95-6.6,2.63-.57-1.16-1.18-2.32-1.99-3.3-1.28-1.45-2.73-3.11-4.76-2.56-2.02,.79-3.6,2.95-4.19,4.95-.35,1.65-.51,3.93,1.14,4.99,2.26,1.42,5.52,1.06,8.06,.55,.12,.49,.22,1.02,.22,1.49-.04,.96-.73,1.59-1.32,2.3-2.99,3.36-6.33,6.11-9.85,8.18-3.38,2.2-8.63,4.07-12.44,1.34-3.97-3.36-1.61-9.4-.71-13.43,0-.29,.22-.75-.04-.87l-.61,.98c-1.85,4.99-3.66,12.62,.43,17.18,1.93,2.3,5.13,2.56,7.92,1.87,5.9-1.87,10.69-6.33,15.18-11.24,1.99-2.3,2.95-5.13,3.28-8.26,3.03-1.28,6.07-2.58,9.08-4.19,1.1,.98,2.24,1.97,3.36,2.77,2.12,1.81,5.03,1.75,7.65,1.63,3.44-.45,6.02-3.42,8.26-6.05,.22-.16,.53-.45,.73-.12,.1,1.08,.2,2.18,.63,3.15,.53,1.24,1.79,1.97,2.99,2.1,4.23,.83,7.53-2.56,9.83-5.8,.26,2.04,.96,4.48,3.15,5.01,2,.43,3.77-.1,5.03-1.71,1.04-1.06,1.47-2.38,2.1-3.62,.33,.49,.55,1.24,.92,1.91,.77,1.63,2.4,2.95,4.23,2.89,1.36,0,2.38-.63,3.3-1.49,3.56-3.77,3.99-9.1,3.83-14.51l-1.71-25.48,.12-.14,1.32,1.36c.18,.06,.43,.45,.71,.24,.08-.39,0-.83-.06-1.16"/><path class="cls-5" d="M342.27,421.33c-1.18-.94-2.4-1.83-3.68-2.54l-.16,.08c-.55,1.2-1.24,2.38-1.63,3.48l3.7,2.71c.73-.79,1.1-1.83,1.55-2.77l3.28,2.32c.14,.12,.41,.31,.53,0,.59-1.04,1.38-2.14,1.55-3.42-1.16-1.04-2.38-2.04-3.81-2.63-.57,.83-.9,1.95-1.34,2.77"/><path class="cls-5" d="M371.38,745.95c.61,.41,4.29,2.5,4.8,2.5s3.07-3.24,3.48-3.97l-4.89-2.67c-.39,.39-2.73,2.54-3.07,2.54-.65,0-3.64-1.99-4.36-2.54-1.2,1.24-2.42,2.54-3.42,3.99,1.53,1.06,3.05,1.99,4.8,2.52,.81-.73,1.81-1.77,2.67-2.36"/><path class="cls-5" d="M413.43,733.4c-2.14,1.51-20.99,9.63-21.07,12.38,2.38-1.77,20.7-9.38,21.07-12.38"/><path class="cls-5" d="M406.55,741.29c-1.02,.69-1.45,2.3-1.45,3.54,0,1.04,.08,1.65,1.16,1.65,1.18,0,2.06-.79,2.79-1.65,.29,.14,.57,.28,.85,.28,2.28,0,2.54-3.62,2.52-5.33v-.79c-1.4,1.1-1.06,2.04-1.32,3.5,0,.2-.04,.26-.2,.26-.85,0-1.36,0-1.36-.98l.08-.96c-1.3,.53-.94,3.38-2.67,3.38-.43,0-.57-.28-.57-.67,0-.59,.47-1.22,.47-1.83,0,0-.16-.35-.29-.39"/><path class="cls-5" d="M411.01,777.14c-.77,0-3.42-2.02-4.11-2.58-.77,.98-2.93,3.18-3.26,4.15,1.38,1.12,2.97,2.02,4.68,2.65,.63-.88,1.49-1.87,2.36-2.42,.61,.33,3.93,2.54,4.42,2.54,.57,0,2.77-3.36,3.4-4.03l-4.8-3.01-2.69,2.69Z"/><path class="cls-5" d="M443.3,785.24c2.34-1.57,9.12-5.5,9.42-8.16-2.69,1.93-6.02,3.64-8.45,5.82-.49,.49-.96,1.67-.96,2.34"/><path class="cls-5" d="M443.77,751.1c.71,0,4.3-2.83,4.3-3.5,0-.45-3.72-3.54-4.36-4.01-.59,.12-4.15,3.56-4.15,4.07,0,.59,3.6,3.44,4.21,3.44"/><path class="cls-5" d="M373.64,761.47c.26-.77,1.51-1.22,2.18-1.63,1.12-.63,1.73-1.87,2.63-2.87l1.06,5.23-5.88-.73Zm60.35,.67c1.69-.57,1.53-1.34,3.64-1.34,3.36,0,5.23,1.43,8.02,2.89-1.06,.63-3.13,1-5.46,1h-9.36c-.63-.02-1.18-.26-1.28-1-.92-6.98-.49-14.41-2.2-21.27l-.22-.12-4.48,6.31,2.28,16.08h-5.78c-1.43,0-2.67-.88-2.67-2.75,0-1.4,.41-2.91,.41-4.34v-3.09c-1.08,1.16-4.3,4.01-4.3,5.72,0,1.4,.31,3.16-.39,4.46h-25.02c-1.28,0-2.42-.55-2.77-1.38-1.45-4.46-2.14-12.17-3.44-17.28l-.28-.22-3.46,6.17c.1,.59,.29,1.2,.57,1.79-8.53,5.19-9.3,3.72-11.91,14.25l10.5,1.87c1.42,.31,2.59-3.91,3.79-4.78,.65,2.06,1.04,6.09,3.95,6.09h26.75c.65-1.32,1.32-2.56,2.12-3.79,.55,1.95,1.99,3.79,4.13,3.79h5.96l2.04-3.89c.08,.71-.02,3.89,1.06,3.89h14c2.44,0,6.09-3.7,9.81-3.7,3.03,0,6.13,.35,9.26,.61l3.91-5.7c-7.19-.77-16.53-7.86-20.9-7.86s-6.27,4.46-8.28,7.57"/><path class="cls-5" d="M468.15,752.59l2.61,19.17c2.46-3.03,3.36-6.25,3.36-10.12,0-5.68-.85-11.3-1.67-16.85-1.53,2.16-3.46,5.31-4.3,7.8"/><path class="cls-5" d="M509.21,744.54c-.2-.51-.31-1.2-.31-1.81l-.35-.37c-1.69,1.99-3.09,4.72-4.19,6.96,.12,.53,1.63,1.36,1.81,1.85,.73,1.81,2.06,10.83,2.06,12.93,0,.18-.06,.45-.22,.59h-6.57c-1.53-.79-4.23-14.37-5.27-17.2l-3.3,6.72,2.44,9.89-.12,.45h-11.46c-.63,0-.9-1.55-.9-2.06,0-1.02,.2-2.18,.2-3.28-1.97,.2-2.99,8.51-2.99,10.26,0,.63,.49,1.75,1.24,1.75h12.34c.94,0,1.57-2.91,2.56-3.56,.33,.71,.96,3.56,1.73,3.56h11.83c.22-.1,.69-.31,.87-.55,.53-.77,1.69-6.39,1.59-7.41l-.69-8.02,4.52-5.98c-1.38-.63-6.41-3.44-6.82-4.72"/><path class="cls-5" d="M520.81,752.59l2.63,19.17c2.46-3.03,3.4-6.25,3.4-10.12,0-5.68-.88-11.3-1.67-16.85-1.51,2.16-3.46,5.31-4.36,7.8"/><path class="cls-5" d="M548.72,765.78c-1.2,0-2.95-.43-2.95-2.02,0-1.22,1.77-3.11,2.38-4.19,1.49,1.08,4.5,3.7,4.95,5.56-1.34,.37-2.97,.65-4.38,.65m1.99-12.29c-2.67,3.03-8.53,10.63-8.53,14.86,0,3.52,3.7,3.38,6.15,3.38,4.64,0,9.46-4.89,9.46-9.53,0-3.79-4.05-7.02-7.08-8.71"/><path class="cls-5" d="M549.21,747.87l5.03,2.65c1.3-.79,2.91-2.77,3.66-4.17l-5.09-2.77c-.53,.43-2.83,2.61-3.26,2.61-.75,0-3.68-2.06-4.46-2.61-1.26,1.34-2.5,2.61-3.66,4.01,1.51,1.22,3.18,2.24,4.93,2.85l2.85-2.58Z"/><path class="cls-5" d="M573.63,734.91c-2.67,1.95-5.98,3.58-8.41,5.9-.51,.47-.98,1.61-.98,2.22,2.28-1.43,9.08-5.39,9.4-8.12"/><path class="cls-5" d="M570.84,755.08c-1.04,1.95-1.65,3.89-2.36,6.05,.96,1,5.03,5.23,5.03,6.39,0,3.01-7.69,9.34-10.67,9.34-1.69,0-3.97-1.02-5.5-1.81h-.71c-.12,.2-.18,.39-.18,.59,0,1.93,9.65,5.19,11.42,5.19,5.43,0,8.75-10.12,8.75-14.59,0-5.03-2.32-7.96-5.78-11.17"/><path class="cls-5" d="M584.93,744.78c-1.47,2.16-3.38,5.31-4.25,7.8l2.56,19.17c2.5-3.03,3.44-6.25,3.44-10.12,0-5.68-.92-11.3-1.75-16.85"/><path class="cls-5" d="M603.72,733.31c-2.63,2.01-5.94,3.6-8.39,5.88-.45,.49-.94,1.71-.94,2.38,2.26-1.57,9.04-5.5,9.34-8.26"/><path class="cls-5" d="M599.95,743.71c-.43,0-4.03,3.42-4.03,3.87,0,.57,3.44,3.22,4.05,3.22,.81-.35,4.15-2.36,4.15-3.22,0-.33-3.95-3.87-4.17-3.87"/><path class="cls-5" d="M601,755.08c-1.04,1.95-1.65,3.89-2.36,6.05,.94,1,5.05,5.23,5.05,6.39,0,3.01-7.73,9.34-10.69,9.34-1.69,0-3.97-1.02-5.56-1.81h-.67c-.14,.2-.16,.39-.16,.59,0,1.93,9.59,5.19,11.44,5.19,5.35,0,8.75-10.12,8.75-14.59,0-5.03-2.36-7.96-5.8-11.17"/><path class="cls-5" d="M622.08,734.38c-2.71,1.97-6.04,3.66-8.45,5.9-.43,.53-.94,1.65-.94,2.28,2.28-1.51,9.06-5.46,9.4-8.18"/><path class="cls-5" d="M620.62,763.77c-.41,.14-1.38,.55-1.75,.55-1.22,0-1.79-.51-2.65-1.14,.24-.98,1.32-2.24,2.38-2.24,1.24,0,2.06,1.55,2.02,2.63v.2Zm-.24-9.55c-3.54,1.02-6.72,7.51-6.72,11.15,0,2.71,.77,5.09,3.87,5.09,3.42,0,3.77-1.65,4.99-4.29,.16,.2,.16,.41,.16,.69,0,.47-.16,1.2-.33,1.55-1.32,3.34-7.29,8.32-10.75,9.28-2.56,.63-5.43,.1-7.88,.88v.39c2.26,1.79,9.06,2.36,11.89,2.36,6.68,0,9.93-11.42,9.93-16.89,0-3.2-1.61-9.26-5.15-10.22"/><path class="cls-2" d="M369.69,832.28l10.65,5.43c2.85-2.46,5.25-5.84,7.35-9.04l-10.75-6.11c-.96,.87-5.88,6.02-6.43,6.02-1.59,.02-7.86-4.3-9.46-5.48l-7.47,9.08c1.36,1.42,9.04,5.84,10.71,5.78,1.75-1.73,3.6-3.66,5.39-5.66"/><path class="cls-2" d="M389.62,859.53c2.18,4.11,4.6,6.94,5.5,11.93l-38.04,1.28c-3.36,.16-8.85-4.54-8.96-8.24-.08-3.16,1.51-8.85,2.5-11.87l-.02-1.16-.63-.28c-5.8,2.32-8.96,18.07-8.75,24.04,.2,5.92,6,12.56,11.56,12.33l43.76-1.47c3.64-7.31,7.19-15.37,6.96-23.83-.18-4.76-4.4-12.46-7.37-15.82l-6.51,13.09Z"/><path class="cls-2" d="M420.94,826.81c-2.97,4.84-6.74,11.95-8.37,17.57l6.8,41.99c4.88-6.74,6.53-14.02,6.27-22.55-.39-12.44-2.63-24.67-4.7-37.02"/><path class="cls-2" d="M452.49,839.18c1.57-1,8.39-5.7,8.33-7.53-.04-.75-8.37-8.2-8.94-8.18-.9,0-8.12,7.67-8.06,8.73,.06,1.4,7.45,6.86,8.67,6.98"/><path class="cls-2" d="M454.87,848.45c-2.04,4.4-3.09,8.69-4.38,13.47,1.95,2.18,10.71,11.22,10.79,13.7,.24,6.7-15.22,21.09-21.39,21.35-3.54,.1-8.28-1.95-11.6-3.58l-1.42,.04c-.22,.59-.37,.96-.35,1.45,.18,4.25,20.31,10.71,24.16,10.63,11.11-.35,17.36-23.04,17-32.89-.31-11.13-5.39-17.28-12.82-24.18"/><path class="cls-2" d="M475.07,842.19l6.8,42.01c4.88-6.7,6.57-14,6.27-22.51-.37-12.4-2.58-24.69-4.72-36.96-2.97,4.76-6.7,11.91-8.35,17.46"/><path class="cls-2" d="M520.45,867.13c-2.85-.04-5.78-1.1-7.25-3.89,.02-.12,0,0,.02-.57-.16-1.28,2.95-4.25,4.03-4.23,2.91,0,4.68,5.84,5.58,8.08-.73,.33-1.69,.61-2.38,.61m104.62-32.75c-2.63-1.43-12.23-7.21-13.7-9.3-.92-1.61-.75-4.11-.96-5.94-3.34,1.43-7.9,11.6-9.49,15.12,.26,1.18,2.85,3.28,3.72,3.97,1.55,11.58,4.23,24.32,4.11,35.99v.77c-2.61,2.5-15.63,5.78-19.15,5.72-3.11-.04-5.68-.83-5.48-4.76l-.12-.41c0-.55,.12-.88,.81-.88,2.44,0,5.05,.83,7.65,1.1,2.81-4.05,5.58-7.94,8.45-11.99-16.04-2.44-34.11-17.95-43.88-18.05-7.37-.08-13.78,10.22-16.51,16.63,2.83-2.06,5.62-3.07,8.83-3.07,4.36,.02,11.13,4.3,14.7,6.88-1.69,.57-4.97,1.63-6.78,1.59l-17.5-.18-4.95-.1h-2.3c-.9-6.41-3.66-22.57-11.24-22.7-7.84-.02-15.55,20.25-15.59,26.89-.12,8.98,10.89,9.2,16.57,10.46-5.31,5.41-15.61,12.13-23.26,12.01-3.34,0-6.9-2.16-10.46-2.16-.35,0-.73,.12-1.04,.33l-.06,1.34c4.15,5.43,15.23,9.61,21.66,9.71,9.14,.1,17.85-13.23,21.33-21.45h4.25l4.93,.12,13.74,.1c4.01,.12,12.78-8.24,22.9-8.14,.96,.06,2.02,.18,3.07,.45-1.51,4.42-3.13,8.63-3.22,13.35-.04,6.6,2.5,9.06,8.49,9.16,4.25,.04,21.17-4.03,24.12-7.12,1.59-1.69,8.04-21.94,8.04-24.81,.12-5.29-.85-11.07-1.26-16.22,0-.55,.04-1.12,.04-1.81,2.93-4.38,6.37-8.45,9.55-12.62"/><path class="cls-2" d="M563.14,893.83c-1.81,0-8.24,7.9-9.71,9.71,1.38,1.43,8.63,7.21,10.16,7.21,.41,0,9.4-9.08,9.44-9.18-.75-1.04-9.06-7.75-9.89-7.75"/><path class="cls-2" d="M643.28,824.73c-3.11,4.74-7.14,11.64-8.57,17.1l5.07,42.3c5.05-6.59,6.98-13.78,6.98-22.29,0-12.42-1.79-24.65-3.48-37.11"/><path class="cls-3" d="M611.76,98.82s-11.79-15.12-53.19-16.24c-23.16,.1-59.48-11.83-59.43-21.72h-4.7c-.14,9.89-36.78,22.13-59.94,22.23-41.38,1.43-53.55,16.73-53.55,16.73-77.49-10.5-73.46,117.18-73.46,117.18,47.47,15.08,71.4,72.12,71.4,72.12,0,0,9.08,15.02,58.56,21.31-14.86-3.05-30.33-7.39-46.37-13.54-5.76-2.18-9.49-6.84-13.76-11.28,0,0,107.37-52.17,231.29-3.3,0,0-2.36,10.16-15,14.88-10.89,4.11-25.73,9.1-43.88,12.92,50.42-6.74,59.94-21.94,59.94-21.94,0,0,25.18-57.3,72.99-72.79,0,0,6.84-127.72-70.91-116.55m-246.02,128.76l-13.88,7.21-17.04-28.15s2.75-61.16,32.02-79.3c0,0-10.65,49.28-1.1,100.23m109.08-47.91s-55.75-2.34-84.39,16.63l3.48-59.62s6.88-19.93,26.95-20.03c28.43,3.99,56.73-11.3,60.8-15.51l-6.84,78.53Zm48.67-.26l-5.19-78.34c3.95,4.09,31.98,19.15,60.45,14.92,20.15-.1,26.56,19.76,26.56,19.76l2.2,59.6c-28.21-18.71-84.02-15.94-84.02-15.94m115.25,53.51l-11.32-6.51c10.69-50.99,1.08-100.21,1.08-100.21,28.88,17.95,30.31,79.1,30.31,79.1l-20.07,27.62Z"/><path class="cls-1" d="M499.33,313.22l-10.63,.06c-20.72,.06-37.45-1.02-51.25-2.83,44.03,9.02,82.58,5.92,112.28-.33-13.62,1.77-30.08,3.01-50.4,3.11"/><path class="cls-4" d="M492.75,318.5c-18.62,0-37.39-1.91-55.79-5.66l.81-4.82c14.29,1.87,30.88,2.81,49.32,2.81l12.23-.06c18.52-.1,34.89-1.12,50.11-3.09l.83,4.8c-18.95,3.99-38.29,6.02-57.5,6.02"/><path class="cls-4" d="M486.41,315.71c-93.55,0-109-24.32-109.61-25.34-.39-.87-24.22-56.5-70.06-71.06l-1.65-.51-.04-1.73c-.1-2.93-1.91-72.16,29.29-104.36,11.99-12.4,27.32-17.61,45.68-15.45,3.68-3.64,18.2-15.33,54.39-16.61,24.22-.1,57.48-12.74,57.58-19.83l.04-2.4h9.57l-.02,2.46c0,.81,.61,1.87,1.75,3.03,7.82,7.88,36.05,16.24,54.88,16.24,36.45,1,50.8,12.44,54.45,16.1,18.44-2.3,33.77,2.83,45.55,15.25,30.35,32.04,27.03,101.1,26.87,104.03l-.08,1.65-1.59,.53c-46.23,14.98-71.28,70.89-71.53,71.46-.77,1.34-16.93,26.11-112.54,26.5l-12.93,.06Zm-105.27-27.54s15.59,22.67,105.29,22.67l12.9-.06c92-.37,108.12-23.67,108.27-23.9,.87-2.04,25.46-56.91,72.69-73.28,.31-10.71,.81-70.89-25.61-98.76-10.93-11.52-25.28-16.06-42.58-13.58l-1.42,.2-.86-1.12s-11.89-14.23-51.33-15.31c-20.86,0-49.77-8.75-58.64-17.69-1.32-1.34-2.22-2.67-2.71-4.03h-.79c-4.74,11.48-40.55,22.15-61.84,22.23-39.39,1.4-51.54,15.71-51.66,15.84l-.88,1.06-1.36-.18c-17.22-2.36-31.59,2.32-42.76,13.86-27.17,28.03-28.03,88.24-27.95,99.11,46.88,16,70.26,70.61,71.24,72.95"/><path class="cls-4" d="M482.65,204.98l-11.26-22.8,4.38-2.14,7.12,14.45c2.71-3.77,7.59-8.96,14.25-9.63,5.52-.41,11.38,2.2,16.96,8.28l6.41-15.1,4.5,1.91-9.59,22.59-2.56-3.28c-5.29-6.8-10.3-9.81-15.22-9.53-7.73,.77-12.76,10.75-12.76,10.75l-2.24,4.52Z"/><path class="cls-4" d="M372.5,275.57l-1.47-2.89,20.17-10.18,4.25-6.8-6.72-3.79-24.55,10.71-1.32-2.97,26.05-11.36,8.28,4.66,4.07-6.53-10.48-6.55,7.12-8.55-6.98-3.15-39.1,18.67-1.4-2.93,40.46-19.3,9.16,4.11,5.76-6.92,.45-.16c30.02-9.93,81.72-10.4,82.23-10.4h.57l8,6.19,8.02-5.64,.53,.02c2.34,.08,57.66,1.77,82.52,9.02l.41,.12,5.88,6.09,7.82-3.3,.65,.28,36.07,16.06-1.34,2.97-35.42-15.79-5.35,2.28,8.51,8.79-12.33,7.08,3.15,5.84,7.37-3.83,.61,.18,24.83,6.96-.88,3.13-24.2-6.76-6.17,3.18,3.36,6.19,17.97,5.96-1,3.09-19.21-6.35-4.01-7.41-10.04,5.19-4.76-7.88-6.39,3.7-.55-.08-60.64-7.25-5.48-4.13-10.06,10.24-9.83-10.12-5.64,4.52-.47,.06-63.32,6.82-5.03-3.15-5.7,8.67-8.63-4.86-4.8,7.69-.41,.2-20.56,10.38Zm27.5-21.03l5.86,3.3,3.99-6.07-5.86-3.66-3.99,6.43Zm182.84-3.26l3.17,5.23,7.27-3.77-3.09-5.68-7.35,4.23Zm-168.43-.51l4.01,2.5,61.73-6.62,4.64-3.73-5.43-5.58c-5.54,.26-41.26,2.12-60.8,7.14l-4.15,6.31Zm99.27-4.64l59.25,7.08,5.43-3.09-4.11-6.82c-5.78-1.06-44.84-8.08-59.09-6.53l-5.92,6.02,4.44,3.34Zm-24.08-2.93l7.31,7.53,7.41-7.57-7.57-5.68-7.16,5.72Zm-83.88,2.16l5.92,3.7,4.88-7.41,.61-.16c21.29-5.64,61.14-7.37,62.81-7.45l.73-.02,6.66,6.84,6.76-5.41-10.95-8.22,11.13-7.82-6.33-4.91c-5.64,.08-52.31,1-80.24,10.1l-4.58,5.48,9.49,4.27-6.88,11.01Zm114.27-12.07c18.48,0,53.9,6.64,55.55,6.94l.73,.14,4.89,8.14,7.47-4.3-6.49-11.95,9.04-3.85-4.4-4.52c-23.39-6.68-74.92-8.59-80.75-8.79l-6.33,4.44,9.89,7.67-10.22,8.18,7.25,5.45,7.02-7.14,.55-.06c1.63-.24,3.6-.33,5.8-.33m-124.35,5.8l7.31,4.56,4.91-7.88-6.9-3.09-5.33,6.41Zm191.07-5.25l4.74,8.73,8.65-4.97-6.49-6.68-6.9,2.93Zm-98.05-6.53l8.04,6.04,7.65-6.11-7.41-5.74-8.28,5.82Z"/><path class="cls-4" d="M436.58,237.59h-.04c-2.58,0-4.99-1-6.8-2.83-1.83-1.85-2.79-4.27-2.77-6.84,.06-5.37,4.44-9.73,9.79-9.73,2.65,0,5.11,1.02,6.92,2.85,1.79,1.81,2.73,4.23,2.69,6.82-.04,5.37-4.44,9.73-9.79,9.73m.18-17.77c-4.46,0-8.12,3.64-8.16,8.1-.02,2.14,.79,4.17,2.3,5.7,1.49,1.51,3.52,2.36,5.64,2.36v.81l.04-.81c4.46,0,8.12-3.66,8.18-8.14,.02-2.16-.79-4.15-2.26-5.64-1.49-1.53-3.54-2.38-5.74-2.38"/><path class="cls-4" d="M439.2,227.86c0,1.4-1.16,2.5-2.54,2.5-1.4,.04-2.54-1.06-2.54-2.42,.02-1.43,1.22-2.54,2.56-2.58,1.42,0,2.52,1.14,2.52,2.5"/><path class="cls-4" d="M557.11,237.08c-2.59,0-5.03-1-6.82-2.83-1.81-1.83-2.79-4.27-2.73-6.86,0-5.33,4.4-9.69,9.77-9.69,2.65,0,5.01,.98,6.8,2.75,1.79,1.83,2.79,4.27,2.77,6.88-.06,5.39-4.46,9.75-9.79,9.75m.33-17.75c-4.66,0-8.26,3.54-8.28,8.08-.02,2.16,.77,4.19,2.28,5.7,1.49,1.51,3.5,2.34,5.66,2.34,4.44,0,8.1-3.64,8.18-8.14,0-2.16-.83-4.19-2.32-5.7-1.45-1.47-3.42-2.28-5.52-2.28"/><path class="cls-4" d="M559.73,227.42c0,1.34-1.16,2.48-2.59,2.48s-2.5-1.08-2.44-2.48c0-1.38,1.14-2.58,2.56-2.58s2.48,1.2,2.48,2.58"/><path class="cls-4" d="M369.7,256.15h0c-2.52,0-4.88-.98-6.6-2.73-1.71-1.75-2.61-4.07-2.58-6.57,0-5.15,4.19-9.36,9.36-9.36,2.54,0,4.86,.98,6.6,2.71,1.75,1.79,2.71,4.15,2.67,6.66-.06,5.19-4.23,9.26-9.46,9.28m.24-17.02c-4.32,0-7.78,3.46-7.78,7.75-.04,2.06,.71,3.97,2.1,5.39,1.43,1.47,3.36,2.26,5.45,2.26,4.32-.02,7.76-3.38,7.84-7.67,.02-2.06-.79-4.03-2.22-5.48-1.43-1.45-3.34-2.24-5.39-2.24m252.68,15.92c-2.5,0-4.82-.94-6.55-2.71-1.73-1.73-2.65-4.05-2.61-6.51,.06-5.21,4.3-9.4,9.44-9.4,2.56,0,4.88,.94,6.59,2.67,1.73,1.77,2.67,4.15,2.63,6.7,0,5.09-4.23,9.24-9.44,9.24h-.06Zm.35-17c-4.32,0-7.82,3.5-7.9,7.8-.02,2,.75,3.91,2.16,5.35,1.43,1.44,3.32,2.24,5.39,2.24v.81l.06-.81c4.3,0,7.8-3.44,7.8-7.65,.02-2.12-.75-4.09-2.16-5.54-1.42-1.4-3.3-2.2-5.35-2.2m-248.41-19.89c-2.52,0-4.88-.96-6.62-2.75-1.73-1.75-2.67-4.11-2.61-6.59,.02-5.11,4.23-9.32,9.4-9.34,2.59,0,4.91,.96,6.64,2.71,1.73,1.77,2.67,4.09,2.63,6.59-.02,5.17-4.27,9.38-9.44,9.38m.26-17.04c-4.36,.02-7.86,3.48-7.88,7.73-.02,2.06,.75,3.97,2.16,5.43,1.45,1.45,3.38,2.28,5.46,2.28,4.21,0,7.78-3.58,7.8-7.78,.02-2.06-.73-3.97-2.16-5.43-1.43-1.43-3.32-2.22-5.39-2.22m243.89,15.2c-2.48,0-4.8-.98-6.53-2.73-1.75-1.77-2.69-4.11-2.65-6.59,.06-5.15,4.29-9.38,9.4-9.42,2.52,0,4.86,.98,6.6,2.71,1.77,1.79,2.73,4.15,2.71,6.68-.06,5.15-4.32,9.34-9.48,9.34h-.06Zm.24-17.1c-4.25,.04-7.73,3.54-7.78,7.8-.02,2.04,.75,3.97,2.16,5.43,1.43,1.45,3.34,2.24,5.39,2.24v.81l.06-.81c4.27,0,7.78-3.46,7.84-7.73,.02-2.08-.79-4.05-2.24-5.48-1.43-1.47-3.36-2.26-5.43-2.26m-223.37,13.58h-.04c-5.17,0-9.22-4.09-9.22-9.34,.1-5.19,4.25-9.32,9.46-9.42,5.13,0,9.28,4.15,9.28,9.28-.04,5.25-4.3,9.47-9.47,9.47m.22-17.14c-4.3,.1-7.78,3.54-7.86,7.82,0,4.3,3.36,7.71,7.61,7.71v.81l.04-.81c4.29,0,7.8-3.54,7.84-7.86,0-4.21-3.42-7.67-7.63-7.67m202.63,15.12h-.04c-2.48,0-4.8-.96-6.55-2.73-1.73-1.75-2.69-4.09-2.65-6.59,.1-5.23,4.23-9.36,9.42-9.4,2.54,0,4.89,.98,6.64,2.77,1.73,1.79,2.67,4.11,2.61,6.59-.02,5.13-4.25,9.34-9.44,9.36m.18-17.08c-4.29,.04-7.73,3.44-7.8,7.78-.02,2.06,.77,3.97,2.2,5.45,1.43,1.43,3.36,2.24,5.39,2.24v.81l.04-.81c4.29-.02,7.78-3.52,7.82-7.76,.04-2.04-.75-3.97-2.16-5.43-1.45-1.47-3.4-2.28-5.48-2.28m-180.26,12.17c-2.46,0-4.74-.96-6.45-2.67-1.73-1.75-2.67-4.11-2.65-6.62,.02-5.13,4.23-9.34,9.38-9.38,2.56,0,4.88,.96,6.62,2.73,1.75,1.75,2.69,4.09,2.65,6.57-.04,5.17-4.27,9.38-9.46,9.38h-.1Zm.35-17.04c-4.32,.04-7.8,3.5-7.82,7.75-.02,2.1,.77,4.03,2.18,5.48,1.4,1.42,3.28,2.18,5.29,2.18v.81l.1-.81c4.29,0,7.8-3.5,7.84-7.75,.02-2.04-.77-3.97-2.2-5.45-1.43-1.43-3.34-2.22-5.39-2.22m158.52,16.2h-.02c-2.48,0-4.8-.94-6.55-2.71s-2.71-4.15-2.69-6.66c.04-5.17,4.27-9.36,9.42-9.38,2.52,0,4.84,.96,6.59,2.73s2.71,4.11,2.67,6.59c-.06,5.17-4.29,9.4-9.42,9.44m.2-17.14c-4.29,.02-7.78,3.52-7.84,7.76,0,2.1,.79,4.05,2.24,5.52,1.43,1.43,3.34,2.24,5.39,2.24,4.27-.06,7.76-3.56,7.82-7.84,.02-2.02-.77-3.95-2.22-5.43-1.43-1.43-3.36-2.26-5.39-2.26m-254.51,16.39h-.04c-2.48,0-4.8-.98-6.55-2.73-1.75-1.77-2.69-4.15-2.67-6.68,0-5.11,4.25-9.3,9.46-9.3,2.56,0,4.89,.98,6.6,2.71,1.71,1.75,2.65,4.09,2.61,6.6-.02,5.17-4.25,9.4-9.42,9.4m.24-17.08c-4.34,0-7.86,3.44-7.86,7.69-.02,2.1,.77,4.05,2.2,5.5,1.43,1.47,3.36,2.26,5.39,2.26v.83l.04-.83c4.29,0,7.76-3.48,7.78-7.78,.04-2.08-.73-4.01-2.14-5.43-1.42-1.45-3.34-2.24-5.41-2.24m346.23,16.69h0c-2.5,0-4.84-.96-6.57-2.69-1.73-1.75-2.69-4.11-2.67-6.6,.02-5.19,4.27-9.42,9.46-9.42,2.52,0,4.82,.96,6.55,2.71,1.75,1.75,2.69,4.09,2.65,6.57-.02,5.15-4.25,9.4-9.42,9.44m.28-17.08c-4.36,0-7.86,3.48-7.88,7.78-.02,2.08,.77,4.01,2.2,5.45,1.42,1.43,3.34,2.22,5.39,2.22,4.29-.04,7.8-3.54,7.82-7.8,.02-2.06-.77-3.97-2.2-5.41-1.42-1.45-3.3-2.24-5.33-2.24m-230.15,15.65c-2.48,0-4.8-.96-6.55-2.73-1.75-1.75-2.69-4.09-2.65-6.57,.04-5.23,4.19-9.34,9.42-9.38,2.54,0,4.88,.96,6.62,2.75,1.71,1.75,2.63,4.07,2.58,6.55-.04,5.17-4.27,9.38-9.42,9.38m.22-17.06c-4.32,.04-7.75,3.46-7.8,7.76-.02,2.04,.77,3.97,2.2,5.45,1.43,1.43,3.34,2.22,5.39,2.22,4.25,0,7.75-3.48,7.8-7.76,.04-2.04-.73-3.93-2.12-5.39-1.43-1.45-3.38-2.28-5.46-2.28m115.53,15.23c-2.48,0-4.8-.96-6.55-2.71-1.75-1.77-2.71-4.13-2.67-6.64,.08-5.15,4.3-9.36,9.4-9.4,2.54,0,4.88,.96,6.62,2.75,1.75,1.75,2.69,4.09,2.65,6.57-.1,5.27-4.23,9.4-9.38,9.44h-.08Zm.18-17.14c-4.21,.04-7.71,3.54-7.76,7.8-.04,2.06,.75,4.01,2.2,5.48,1.42,1.43,3.34,2.24,5.39,2.24v.81l.06-.81c4.27-.04,7.69-3.5,7.78-7.84,.02-2.04-.77-3.97-2.2-5.41-1.43-1.45-3.38-2.28-5.46-2.28m-92.86,16.65h-.04c-2.5,0-4.84-.96-6.59-2.73-1.73-1.75-2.65-4.11-2.63-6.6,.04-5.13,4.27-9.32,9.46-9.32,2.52,0,4.84,.94,6.57,2.71,1.75,1.73,2.71,4.07,2.69,6.57-.06,5.17-4.31,9.38-9.46,9.38m.24-17.04c-4.32,0-7.84,3.48-7.86,7.73-.02,2.06,.75,3.99,2.18,5.45,1.42,1.45,3.34,2.26,5.41,2.26v.81l.04-.81c4.25,0,7.76-3.5,7.82-7.78,.02-2.02-.77-3.95-2.2-5.41-1.45-1.43-3.36-2.24-5.39-2.24m70.63,16.73c-2.48,0-4.78-.96-6.51-2.71-1.75-1.77-2.67-4.11-2.65-6.6,.02-5.17,4.23-9.36,9.36-9.36,2.54,0,4.91,.96,6.66,2.75,1.73,1.75,2.65,4.09,2.61,6.59-.08,5.15-4.3,9.34-9.42,9.34h-.06Zm.2-17.06c-4.25,0-7.71,3.5-7.73,7.76-.02,2.06,.75,3.99,2.18,5.43,1.42,1.45,3.3,2.24,5.35,2.24v.83l.06-.83c4.23,0,7.71-3.46,7.78-7.75,.02-2.04-.73-3.95-2.14-5.41-1.45-1.47-3.4-2.28-5.5-2.28m-158.83,15.33h-.06c-2.48,0-4.8-.96-6.55-2.73-1.75-1.77-2.69-4.11-2.67-6.57,.08-5.19,4.31-9.4,9.44-9.42,2.54,0,4.89,.96,6.64,2.75,1.73,1.77,2.67,4.11,2.63,6.61-.04,5.11-4.29,9.32-9.44,9.36m.2-17.1c-4.29,.02-7.78,3.54-7.84,7.82-.02,2,.77,3.93,2.2,5.41,1.43,1.43,3.36,2.26,5.39,2.26v.81l.04-.81c4.29-.04,7.78-3.54,7.82-7.76,.04-2.06-.75-3.99-2.16-5.46-1.43-1.43-3.38-2.26-5.45-2.26m243.91,15.82c-5.07,0-9.18-4.17-9.18-9.3,.12-5.15,4.32-9.38,9.42-9.44,2.54,0,4.89,.98,6.64,2.75s2.69,4.11,2.65,6.6c-.02,5.17-4.27,9.38-9.44,9.38h-.1Zm.26-17.1c-4.21,.06-7.73,3.56-7.8,7.82,0,4.21,3.38,7.65,7.55,7.65v.81l.1-.81c4.29,0,7.78-3.48,7.8-7.76,.02-2.04-.75-3.99-2.18-5.43-1.45-1.47-3.38-2.28-5.46-2.28m-292.53,.59c-2.48,0-4.78-.96-6.53-2.73-1.73-1.77-2.67-4.11-2.61-6.6,.06-5.17,4.3-9.36,9.42-9.36,2.54,0,4.86,.96,6.6,2.71,1.73,1.75,2.67,4.11,2.65,6.6-.06,5.17-4.29,9.38-9.46,9.38h-.08Zm.31-17.08c-4.27,0-7.76,3.5-7.84,7.78-.02,2.04,.75,3.97,2.16,5.45,1.43,1.43,3.34,2.22,5.37,2.22v.83l.08-.83c4.27,0,7.78-3.48,7.82-7.75,.02-2.06-.77-4.01-2.18-5.46-1.43-1.43-3.36-2.24-5.41-2.24m338.66,16.55h-.02c-2.52,0-4.88-.96-6.64-2.77-1.73-1.77-2.67-4.11-2.63-6.61,.02-5.19,4.27-9.44,9.46-9.44,2.48,0,4.8,.98,6.53,2.71,1.75,1.77,2.71,4.13,2.69,6.64-.06,5.15-4.29,9.4-9.38,9.46m.16-17.18c-4.3,0-7.8,3.5-7.82,7.82-.04,2.06,.75,3.99,2.16,5.45,1.45,1.47,3.4,2.28,5.48,2.28,4.23-.06,7.71-3.56,7.78-7.84,0-2.06-.79-4.01-2.24-5.46-1.42-1.45-3.34-2.24-5.37-2.24m-288.79,15.69h0c-5.11,0-9.28-4.19-9.28-9.34,.12-5.21,4.34-9.42,9.44-9.42,2.52,0,4.86,.94,6.6,2.71,1.75,1.75,2.69,4.11,2.69,6.62-.08,5.19-4.32,9.4-9.46,9.42m.16-17.14c-4.21,0-7.71,3.52-7.8,7.82,0,4.23,3.44,7.71,7.65,7.71,4.25-.02,7.75-3.54,7.82-7.82,0-2.06-.79-4.03-2.22-5.46s-3.36-2.24-5.45-2.24m242.08,14.94h-.04c-2.48,0-4.8-.96-6.53-2.73-1.75-1.75-2.71-4.11-2.67-6.59,.04-5.13,4.27-9.36,9.4-9.4,2.52,0,4.86,.96,6.62,2.73,1.75,1.77,2.71,4.11,2.69,6.6-.08,5.19-4.32,9.38-9.47,9.38m.18-17.08c-4.27,.04-7.76,3.52-7.8,7.76-.02,2.06,.77,3.99,2.22,5.46,1.43,1.45,3.34,2.24,5.37,2.24v.81l.04-.81c4.19,0,7.78-3.58,7.86-7.78,0-2.04-.79-3.99-2.24-5.45-1.43-1.43-3.38-2.24-5.45-2.24m-120.74,14.53h-.02c-2.5,0-4.82-.94-6.55-2.71-1.77-1.73-2.71-4.09-2.71-6.6,.08-5.19,4.32-9.4,9.46-9.4,2.56,0,4.88,.96,6.6,2.71,1.75,1.77,2.67,4.11,2.65,6.62-.06,5.13-4.3,9.34-9.44,9.38m.24-17.08c-4.3,0-7.8,3.48-7.88,7.78-.02,2.06,.79,3.99,2.22,5.45,1.43,1.43,3.34,2.24,5.41,2.24,4.27-.04,7.76-3.54,7.82-7.78,.02-2.08-.75-4.01-2.18-5.46-1.42-1.43-3.32-2.22-5.39-2.22m-166.01,3.22h0c-2.46,0-4.76-.94-6.51-2.69-1.77-1.79-2.73-4.15-2.71-6.68,.06-5.17,4.31-9.38,9.44-9.38,2.56,0,4.88,.98,6.6,2.71,1.75,1.77,2.69,4.11,2.65,6.59-.06,5.15-4.3,9.4-9.47,9.46m.29-17.12c-4.32,0-7.82,3.48-7.9,7.76,0,2.08,.81,4.05,2.26,5.5,1.42,1.43,3.32,2.22,5.33,2.22,4.29-.06,7.8-3.56,7.88-7.84,.02-2.04-.77-3.97-2.2-5.41-1.43-1.45-3.34-2.24-5.37-2.24m327.91,15.82c-2.48,0-4.78-.94-6.51-2.69-1.73-1.73-2.67-4.09-2.63-6.59,.08-5.17,4.3-9.4,9.44-9.44,2.48,0,4.8,.96,6.55,2.73,1.77,1.77,2.73,4.13,2.73,6.6-.12,5.19-4.36,9.38-9.46,9.38h-.12Zm.29-17.1c-4.23,.04-7.75,3.56-7.82,7.84-.02,2.04,.77,3.99,2.18,5.43,1.42,1.42,3.3,2.22,5.35,2.22v.81l.1-.81c4.23,0,7.75-3.5,7.84-7.78,0-2.04-.79-3.97-2.24-5.45-1.45-1.43-3.36-2.26-5.41-2.26m-284.17,15.71h0c-2.48,0-4.8-.98-6.53-2.73-1.77-1.79-2.73-4.17-2.71-6.68,.08-5.17,4.32-9.36,9.44-9.36,2.5,0,4.86,.98,6.6,2.73,1.71,1.77,2.63,4.11,2.59,6.59-.04,5.11-4.25,9.38-9.4,9.46m.2-17.14c-4.23,0-7.73,3.46-7.8,7.75-.02,2.08,.77,4.05,2.24,5.5,1.42,1.47,3.34,2.26,5.37,2.26,4.25-.08,7.73-3.6,7.76-7.84,.04-2.04-.73-3.97-2.14-5.41-1.42-1.45-3.36-2.26-5.43-2.26m242.05,13.66h-.04c-2.46,0-4.78-.96-6.51-2.73-1.75-1.75-2.71-4.09-2.67-6.57,.04-5.11,4.27-9.34,9.42-9.4,2.52,0,4.88,.96,6.62,2.75,1.75,1.77,2.67,4.11,2.63,6.59-.02,5.07-4.36,9.36-9.46,9.36m.2-17.08c-4.25,.06-7.75,3.56-7.8,7.78-.02,2.04,.77,3.97,2.22,5.43,1.42,1.45,3.34,2.26,5.35,2.26v.81l.04-.81c4.23,0,7.8-3.58,7.84-7.76,.02-2.04-.75-3.97-2.18-5.43s-3.38-2.28-5.46-2.28m-120.72,10.63c-2.52,0-4.86-.98-6.59-2.73-1.73-1.75-2.67-4.09-2.65-6.55,.04-5.19,4.27-9.44,9.44-9.46,2.5,0,4.84,.98,6.59,2.71,1.73,1.77,2.69,4.13,2.67,6.62-.06,5.19-4.3,9.4-9.46,9.4m.2-17.1c-4.27,.02-7.78,3.52-7.8,7.82-.02,2.04,.75,3.97,2.18,5.39,1.44,1.45,3.36,2.26,5.43,2.26,4.27,0,7.78-3.48,7.82-7.76,.02-2.08-.77-4.01-2.2-5.47-1.44-1.45-3.36-2.24-5.43-2.24m-156.42,9.4h0c-2.52,0-4.88-.98-6.6-2.71-1.75-1.77-2.71-4.13-2.69-6.66,.04-5.13,4.29-9.34,9.49-9.36,2.5,0,4.8,.98,6.55,2.71,1.73,1.77,2.69,4.13,2.65,6.62-.06,5.23-4.19,9.36-9.4,9.4m.24-17.1c-4.34,.02-7.88,3.48-7.92,7.73,0,2.1,.79,4.07,2.24,5.5,1.43,1.45,3.36,2.24,5.43,2.24,4.31-.04,7.73-3.44,7.8-7.78,.02-2.06-.77-4.01-2.2-5.45-1.43-1.45-3.34-2.24-5.35-2.24m308.23,16.53h-.04c-2.48,0-4.82-.96-6.53-2.71-1.75-1.75-2.69-4.09-2.65-6.57,.08-5.23,4.21-9.38,9.38-9.44,2.5,0,4.82,.96,6.57,2.73,1.77,1.79,2.71,4.15,2.69,6.62-.02,5.17-4.25,9.36-9.42,9.36m.18-17.08c-4.29,.06-7.71,3.48-7.78,7.82-.02,2.04,.75,3.95,2.18,5.41,1.43,1.43,3.34,2.24,5.39,2.24v.81l.04-.81c4.27,0,7.76-3.5,7.78-7.75,.02-2.06-.77-4.01-2.22-5.48-1.43-1.43-3.34-2.24-5.39-2.24m-271.9,13.19h-.02c-2.5,0-4.84-.98-6.57-2.71-1.75-1.77-2.69-4.13-2.65-6.64,.06-5.15,4.29-9.34,9.44-9.34,2.56,0,4.86,.98,6.59,2.71,1.73,1.75,2.67,4.09,2.63,6.59-.06,5.11-4.29,9.34-9.42,9.4m.28-17.06c-4.32,0-7.84,3.46-7.9,7.73-.02,2.06,.77,4.01,2.2,5.46,1.43,1.45,3.34,2.24,5.41,2.24,4.25-.06,7.75-3.54,7.8-7.78,.02-2.06-.75-3.99-2.16-5.41-1.42-1.45-3.32-2.24-5.35-2.24m236.84,13.72c-2.46,0-4.76-.96-6.47-2.71-1.75-1.73-2.69-4.09-2.65-6.59,.02-5.19,4.25-9.4,9.42-9.4s9.26,4.17,9.26,9.3c-.08,5.19-4.32,9.4-9.46,9.4h-.1Zm.37-17.06c-4.36,0-7.86,3.48-7.88,7.76-.02,2.08,.77,4.01,2.2,5.45,1.4,1.43,3.28,2.22,5.31,2.22v.81l.1-.81c4.27,0,7.75-3.5,7.82-7.78,0-4.21-3.38-7.65-7.55-7.65m19.09,9c-2.52,0-4.88-.96-6.64-2.75-1.71-1.77-2.63-4.07-2.59-6.53,.02-5.15,4.25-9.38,9.4-9.44,2.5,0,4.84,.96,6.59,2.73,1.77,1.79,2.73,4.13,2.71,6.59-.06,5.21-4.3,9.4-9.46,9.4m.16-17.1c-4.25,.06-7.75,3.58-7.76,7.84-.04,2,.73,3.91,2.14,5.37,1.45,1.45,3.38,2.28,5.46,2.28,4.25,0,7.76-3.5,7.84-7.78,0-2.04-.81-3.97-2.24-5.45-1.45-1.43-3.38-2.26-5.45-2.26m-277.57,17.1h0c-2.52,0-4.86-.96-6.6-2.75-1.75-1.77-2.67-4.11-2.63-6.64,.06-5.15,4.29-9.32,9.42-9.32,2.58,0,4.88,.94,6.59,2.69,1.75,1.75,2.69,4.09,2.65,6.59-.04,5.19-4.29,9.4-9.42,9.44m.29-17.1c-4.36,0-7.86,3.48-7.9,7.75-.04,2.06,.75,4.01,2.16,5.48,1.43,1.44,3.38,2.26,5.43,2.26,4.27-.04,7.76-3.56,7.8-7.82,.02-2.06-.75-4.01-2.18-5.45-1.4-1.42-3.28-2.22-5.31-2.22m140.32,13.31h-.06c-2.46,0-4.78-.98-6.53-2.75-1.75-1.79-2.69-4.15-2.63-6.64,.02-5.11,4.23-9.3,9.4-9.3,2.56,0,4.89,.98,6.64,2.73,1.73,1.75,2.67,4.09,2.63,6.55-.1,5.15-4.34,9.38-9.46,9.42m.26-17.06c-4.34,0-7.82,3.44-7.84,7.69-.04,2.06,.73,4.01,2.16,5.46,1.44,1.47,3.34,2.28,5.37,2.28v.81l.04-.81c4.25-.04,7.76-3.54,7.86-7.8,.02-2.02-.77-3.95-2.18-5.37-1.43-1.47-3.36-2.26-5.41-2.26m-103.14,15.47h-.02c-2.48,0-4.8-.94-6.53-2.71-1.75-1.77-2.71-4.15-2.69-6.66,.08-5.19,4.32-9.4,9.44-9.4,2.5,0,4.82,.96,6.55,2.71,1.75,1.77,2.69,4.15,2.67,6.66-.04,5.11-4.27,9.34-9.42,9.4m.24-17.16c-4.27,0-7.76,3.52-7.84,7.8-.02,2.08,.77,4.05,2.22,5.5,1.42,1.43,3.32,2.22,5.37,2.22,4.27-.06,7.78-3.54,7.8-7.78,.02-2.08-.77-4.03-2.2-5.5-1.43-1.43-3.34-2.24-5.35-2.24m203.79,16.24h-.04c-2.48,0-4.78-.96-6.51-2.69s-2.67-4.07-2.67-6.55c.06-5.17,4.27-9.42,9.4-9.46,2.5,0,4.84,.98,6.59,2.73,1.77,1.79,2.73,4.13,2.73,6.6-.12,5.17-4.36,9.36-9.49,9.36m.18-17.06c-4.23,.04-7.73,3.54-7.76,7.82-.02,2.04,.77,3.97,2.2,5.39,1.42,1.43,3.3,2.22,5.35,2.22v.81l.04-.81c4.25,0,7.76-3.46,7.86-7.75,0-2.04-.79-3.97-2.24-5.43s-3.38-2.26-5.45-2.26m-22.7,12.29c-2.46,0-4.76-.96-6.49-2.69-1.75-1.75-2.71-4.09-2.69-6.57,.1-5.15,4.3-9.4,9.42-9.46,2.56,0,4.88,.98,6.62,2.75,1.75,1.77,2.67,4.09,2.65,6.57-.04,5.15-4.29,9.38-9.44,9.4h-.08Zm.31-17.08c-4.29,.06-7.78,3.56-7.86,7.84-.02,2.02,.77,3.95,2.22,5.39,1.42,1.43,3.3,2.22,5.33,2.22v.83l.06-.83c4.29-.02,7.78-3.5,7.82-7.78,.02-2.04-.75-3.95-2.18-5.41-1.43-1.45-3.34-2.26-5.39-2.26m-157.97,14.23c-2.42,0-4.7-.96-6.41-2.69-1.77-1.79-2.71-4.15-2.65-6.64,0-5.13,4.21-9.38,9.38-9.42,2.5,0,4.84,.96,6.57,2.71,1.77,1.77,2.73,4.13,2.71,6.62-.12,5.15-4.34,9.38-9.44,9.42h-.16Zm.33-17.12c-4.29,.04-7.76,3.54-7.76,7.8-.04,2.06,.73,4.01,2.18,5.46,1.4,1.43,3.26,2.22,5.25,2.22v.81l.14-.81c4.23-.04,7.75-3.54,7.82-7.8,.02-2.06-.77-4.01-2.22-5.45-1.44-1.45-3.36-2.24-5.41-2.24m23.43,17.02h-.04c-2.46,0-4.76-.96-6.49-2.69-1.77-1.79-2.71-4.15-2.69-6.64,.1-5.17,4.32-9.38,9.44-9.38,2.54,0,4.88,.98,6.6,2.73,1.73,1.77,2.67,4.09,2.63,6.59-.08,5.13-4.32,9.36-9.46,9.4m.26-17.08c-4.27,0-7.76,3.48-7.84,7.76-.02,2.06,.77,3.99,2.22,5.46,1.42,1.43,3.3,2.22,5.33,2.22v.81l.04-.81c4.25-.04,7.75-3.52,7.82-7.8,.02-2.04-.75-3.97-2.16-5.39-1.43-1.47-3.34-2.26-5.41-2.26m110.04,15.88h0c-2.54,0-4.89-.96-6.64-2.75-1.75-1.75-2.69-4.09-2.65-6.59,.04-5.13,4.27-9.34,9.44-9.38,2.54,0,4.86,.94,6.59,2.71,1.75,1.73,2.67,4.09,2.65,6.57-.04,5.19-4.25,9.42-9.38,9.44m.22-17.1c-4.34,.04-7.84,3.54-7.88,7.76-.02,2.06,.75,4.01,2.18,5.45,1.45,1.45,3.38,2.26,5.48,2.26,4.23-.02,7.71-3.52,7.75-7.8,.02-2.04-.77-3.97-2.18-5.45-1.43-1.42-3.32-2.22-5.35-2.22m-21.54,12.35h0c-2.5,0-4.84-.96-6.59-2.73-1.73-1.77-2.65-4.13-2.61-6.66,.02-5.11,4.23-9.32,9.38-9.36,2.52,0,4.86,.96,6.62,2.75,1.75,1.79,2.69,4.11,2.67,6.57-.12,5.21-4.34,9.42-9.47,9.44m.2-17.14c-4.27,.04-7.75,3.54-7.76,7.76-.04,2.1,.73,4.05,2.14,5.5,1.43,1.45,3.36,2.26,5.43,2.26,4.23-.02,7.76-3.54,7.84-7.84,.02-2.01-.77-3.93-2.2-5.41-1.45-1.45-3.4-2.28-5.45-2.28m-67.84,17.14c-2.52,0-4.86-.94-6.59-2.71-1.75-1.75-2.69-4.09-2.67-6.59,.08-5.15,4.31-9.36,9.44-9.4,2.52,0,4.84,.96,6.59,2.73,1.73,1.77,2.67,4.11,2.63,6.6-.04,5.17-4.27,9.36-9.4,9.36m.2-17.08c-4.25,.04-7.76,3.54-7.82,7.8-.02,2.04,.77,3.99,2.18,5.43,1.43,1.43,3.38,2.24,5.45,2.24,4.25,0,7.73-3.5,7.76-7.76,.04-2.04-.73-3.99-2.16-5.45-1.43-1.45-3.36-2.26-5.41-2.26m23,11.42h-.06c-2.5,0-4.84-.96-6.59-2.75-1.77-1.75-2.71-4.09-2.69-6.55,.08-5.19,4.34-9.44,9.49-9.47,2.5,0,4.84,.98,6.57,2.75,1.75,1.79,2.69,4.15,2.63,6.64-.04,5.09-4.25,9.32-9.36,9.38m.18-17.14c-4.27,.04-7.8,3.56-7.88,7.86,0,2.02,.77,3.93,2.2,5.37,1.45,1.47,3.38,2.28,5.45,2.28v.83l.04-.83c4.23-.06,7.71-3.54,7.75-7.76,.04-2.06-.73-3.99-2.16-5.46-1.43-1.47-3.34-2.28-5.39-2.28m22.69,17c-2.48,0-4.82-.98-6.55-2.73-1.73-1.75-2.67-4.07-2.65-6.53,.06-5.17,4.3-9.42,9.44-9.47,2.52,0,4.86,.98,6.6,2.71,1.75,1.79,2.71,4.15,2.69,6.68-.04,5.15-4.3,9.34-9.47,9.34h-.06Zm.26-17.1c-4.27,.06-7.76,3.58-7.82,7.86-.02,2.01,.75,3.93,2.18,5.37,1.43,1.45,3.34,2.24,5.39,2.24v.83l.06-.83c4.29,0,7.8-3.46,7.86-7.71,0-2.1-.79-4.07-2.24-5.52-1.43-1.45-3.36-2.24-5.43-2.24"/><path class="cls-4" d="M346.14,242.43l-2.58-4.17c1.43-.88,145.23-87.79,302.85-1.79l-2.34,4.27c-155.14-84.61-296.54,.81-297.93,1.69"/><polygon class="cls-3" points="486.58 22.1 498.67 4.23 510.7 20.47 499.79 45.97 486.58 22.1"/><path class="cls-4" d="M500.08,51.5l-16.35-29.53L498.58,0l14.9,20.13-13.41,31.37Zm-10.63-29.29l10.08,18.18,8.37-19.6-9.14-12.36-9.32,13.78Z"/><path class="cls-3" d="M520.29,59.87c-.14,12.11-10.05,21.94-22.06,21.94-12.03,.06-21.68-9.61-21.62-21.7,.18-12.09,10.04-21.96,22.11-22,11.97-.04,21.7,9.75,21.56,21.76"/><path class="cls-4" d="M498.12,84.24c-6.43,0-12.46-2.5-16.98-7.04s-7-10.63-6.96-17.12c.2-13.45,11.21-24.38,24.53-24.41,6.53,0,12.56,2.52,17.1,7.12,4.54,4.58,7,10.65,6.92,17.1-.14,13.43-11.13,24.36-24.49,24.36h-.12Zm.67-43.7c-10.75,.04-19.58,8.83-19.74,19.6-.04,5.15,1.95,10.01,5.54,13.62,3.6,3.62,8.39,5.6,13.52,5.6v2.44l.1-2.44c10.71,0,19.52-8.77,19.64-19.52,.06-5.13-1.91-9.99-5.52-13.64-3.62-3.64-8.41-5.66-13.54-5.66"/><polygon class="cls-3" points="479.34 103.78 471.75 115.06 465.28 118.76 467.78 127.07 463.63 131.04 466.4 138.14 461.06 143.25 465.24 149.99 461.73 153.31 465.13 159.07 461.21 162.75 465.79 170.59 461.78 174.43 471.95 184.16 484.06 172.58 477.81 170.53 481.7 163.14 476.94 161.2 481.11 153.57 477.31 149.95 481.7 141.54 477.2 137.12 482.43 128.55 478.34 124.61 484.37 116.69 480.52 113.02 479.34 103.78"/><path class="cls-4" d="M471.95,186.3l-12.4-11.87,4.29-4.13-4.58-7.84,3.89-3.66-3.38-5.78,3.5-3.3-4.21-6.74,5.52-5.25-2.77-7.1,4.21-4.01-2.58-8.61,7.23-4.13,9.67-14.39,1.65,12.78,4.44,4.27-6.04,7.92,3.99,3.81-5.23,8.61,4.44,4.36-4.38,8.37,3.81,3.64-3.91,7.16,4.74,1.93-3.83,7.27,6.98,2.28-15.06,14.41Zm-7.92-11.87l7.92,7.59,9.16-8.77-5.52-1.81,3.93-7.51-4.8-1.97,4.44-8.1-3.77-3.62,4.38-8.41-4.54-4.48,5.23-8.55-4.21-4.03,6.03-7.92-3.22-3.11-.75-5.7-5.8,8.35-5.39,3.09,2.42,8.04-4.09,3.91,2.77,7.1-5.21,4.97,4.21,6.72-3.56,3.36,3.42,5.76-3.91,3.66,4.54,7.86-3.7,3.56Z"/><path class="cls-4" d="M471.96,185.85l-11.91-11.42,4.21-4.07-4.58-7.84,3.91-3.66-3.4-5.78,3.52-3.3-4.21-6.74,5.48-5.23-2.77-7.1,4.21-3.99-2.58-8.55,7.06-4.03,9.24-13.74,1.53,12.03,4.32,4.15-6.04,7.92,4.01,3.83-5.23,8.59,4.44,4.38-4.36,8.39,3.79,3.62-3.95,7.25,4.74,1.95-3.85,7.29,6.82,2.22-14.41,13.82Zm-8.41-11.42l8.41,8.04,9.79-9.38-5.68-1.85,3.93-7.49-4.8-1.95,4.38-8-3.79-3.64,4.4-8.39-4.54-4.46,5.23-8.57-4.19-4.01,6.04-7.92-3.36-3.24-.83-6.43-6.17,8.96-5.64,3.22,2.44,8.1-4.11,3.93,2.77,7.1-5.23,4.99,4.21,6.72-3.54,3.36,3.4,5.76-3.91,3.66,4.56,7.86-3.77,3.62Z"/><polygon class="cls-1" points="518.33 103.6 525.64 114.82 532.01 118.48 529.35 126.82 533.4 130.75 530.51 137.9 535.74 142.92 531.44 149.7 534.86 153 531.34 158.76 535.11 162.45 530.42 170.32 534.35 174.07 524.05 183.94 512.06 172.46 518.39 170.4 514.61 163.01 519.49 161.06 515.5 153.43 519.33 149.72 515.12 141.42 519.72 136.9 514.65 128.43 518.92 124.46 513.02 116.57 516.93 112.9 518.33 103.6"/><polygon class="cls-3" points="518.33 103.6 525.64 114.82 532.01 118.48 529.35 126.82 533.4 130.75 530.51 137.9 535.74 142.92 531.44 149.7 534.86 153 531.34 158.76 535.11 162.45 530.42 170.32 534.35 174.07 524.05 183.94 512.06 172.46 518.39 170.4 514.61 163.01 519.49 161.06 515.5 153.43 519.33 149.72 515.12 141.42 519.72 136.9 514.65 128.43 518.92 124.46 513.02 116.57 516.93 112.9 518.33 103.6"/><path class="cls-4" d="M524.03,186.08l-14.92-14.31,7.08-2.28-3.75-7.29,4.88-1.95-3.74-7.12,3.85-3.75-4.23-8.28,4.56-4.46-5.07-8.49,4.15-3.87-5.9-7.88,4.52-4.27,1.93-12.8,9.34,14.33,7.14,4.09-2.73,8.63,4.11,3.97-2.89,7.16,5.39,5.17-4.32,6.76,3.4,3.3-3.52,5.76,3.77,3.7-4.68,7.86,4.19,4.01-12.54,12.01Zm-9.04-12.95l9.04,8.69,8.06-7.75-3.66-3.5,4.72-7.86-3.79-3.7,3.52-5.76-3.44-3.32,4.32-6.78-5.09-4.86,2.89-7.16-3.99-3.87,2.58-8.06-5.82-3.52-5.07-7.82-.88,5.78-3.28,3.11,5.88,7.88-4.34,4.07,5.05,8.47-4.66,4.56,4.23,8.3-3.83,3.7,4.25,8.14-4.89,1.95,3.83,7.49-5.6,1.83Z"/></svg>